<svg width="405" height="371" viewBox="0 0 405 371" fill="none" xmlns="http://www.w3.org/2000/svg">
<path d="M16.9001 0.373816C17.8694 0.37014 18.8388 0.366463 19.8375 0.362675C23.1064 0.351606 26.3752 0.347789 29.644 0.343985C31.9794 0.337723 34.3147 0.331077 36.6501 0.324073C43.0097 0.306641 49.3693 0.296105 55.7289 0.287867C59.6992 0.282722 63.6696 0.276646 67.64 0.270356C78.6306 0.253483 89.6213 0.238848 100.612 0.231607C103.465 0.229697 106.318 0.227777 109.17 0.225821C110.234 0.225096 110.234 0.225096 111.319 0.224355C122.806 0.216055 134.293 0.190718 145.78 0.158241C157.57 0.125176 169.361 0.107159 181.152 0.103963C187.773 0.101797 194.394 0.0925975 201.015 0.0675018C207.243 0.0442774 213.471 0.0399654 219.699 0.0502632C221.986 0.0507601 224.274 0.0443965 226.561 0.0307072C229.681 0.0130751 232.801 0.0200521 235.921 0.0332401C236.828 0.0222709 237.735 0.0113016 238.67 0C244.15 0.0559968 247.347 0.819135 251.665 4.52099C254.036 8.0782 253.922 9.62005 253.939 13.8408C253.949 15.1458 253.958 16.4508 253.968 17.7954C253.968 19.2221 253.967 20.6489 253.965 22.0757C253.969 23.5391 253.974 25.0026 253.978 26.4661C253.986 29.5344 253.985 32.6026 253.98 35.6709C253.974 39.5974 253.991 43.5234 254.015 47.4498C254.029 50.473 254.03 53.4961 254.027 56.5194C254.028 57.9666 254.033 59.4139 254.043 60.8611C254.055 62.8882 254.046 64.9153 254.037 66.9424C254.037 68.0947 254.038 69.247 254.039 70.4343C253.612 73.9583 252.852 75.7378 250.665 78.521C246.842 81.3043 244.191 81.8907 239.497 81.8616C238.276 81.8613 237.056 81.8611 235.798 81.8609C234.489 81.8454 233.181 81.8299 231.833 81.814C230.472 81.8084 229.112 81.8041 227.751 81.8011C224.182 81.7897 220.613 81.7602 217.044 81.727C213.397 81.6962 209.751 81.6826 206.104 81.6675C198.957 81.6354 191.811 81.5842 184.665 81.521C184.666 82.125 184.667 82.729 184.668 83.3514C184.735 119.125 184.787 154.898 184.818 190.672C184.821 194.964 184.825 199.256 184.829 203.549C184.83 204.403 184.831 205.258 184.832 206.138C184.845 219.987 184.868 233.837 184.896 247.686C184.924 261.889 184.941 276.092 184.947 290.295C184.951 299.064 184.964 307.833 184.988 316.603C185.004 322.61 185.009 328.617 185.005 334.625C185.003 338.095 185.006 341.564 185.022 345.034C185.037 348.79 185.034 352.546 185.025 356.303C185.034 357.407 185.043 358.511 185.052 359.648C185.046 360.65 185.04 361.653 185.034 362.685C185.035 363.553 185.036 364.421 185.037 365.315C184.583 368.006 183.839 368.914 181.665 370.521C176.789 370.546 174.032 367.545 170.736 364.334C170.173 363.799 169.609 363.265 169.029 362.714C167.228 360.995 165.444 359.261 163.665 357.521C163.096 356.967 162.528 356.413 161.943 355.842C157.772 351.763 153.645 347.642 149.524 343.513C148.222 342.212 146.92 340.911 145.618 339.611C142.921 336.915 140.226 334.217 137.531 331.518C134.075 328.056 130.613 324.598 127.151 321.141C124.476 318.47 121.804 315.797 119.132 313.122C117.855 311.845 116.578 310.568 115.299 309.292C113.526 307.522 111.757 305.748 109.988 303.974C109.46 303.448 108.932 302.922 108.389 302.381C104.305 298.273 103.551 296.462 103.535 290.636C103.538 289.805 103.541 288.974 103.544 288.118C103.543 287.239 103.543 286.359 103.542 285.453C103.54 282.488 103.546 279.523 103.551 276.558C103.551 274.439 103.551 272.321 103.551 270.202C103.55 264.436 103.556 258.67 103.563 252.903C103.569 246.883 103.57 240.862 103.571 234.842C103.574 223.435 103.582 212.027 103.593 200.62C103.604 187.636 103.609 174.652 103.614 161.667C103.625 134.952 103.642 108.236 103.665 81.521C101.874 81.5277 101.874 81.5277 100.047 81.5344C88.805 81.575 77.5632 81.605 66.3213 81.6246C60.5414 81.6351 54.7617 81.6492 48.9819 81.6719C43.4058 81.6936 37.8297 81.7056 32.2535 81.7107C30.1244 81.7144 27.9953 81.7217 25.8663 81.7324C22.8878 81.7469 19.9096 81.749 16.9311 81.748C16.0478 81.7552 15.1646 81.7624 14.2545 81.7698C13.4412 81.7671 12.628 81.7643 11.7901 81.7615C10.7337 81.7643 10.7337 81.7643 9.656 81.7671C7.2787 81.4733 5.70655 80.7608 3.66454 79.521C0.667323 75.6764 0.279473 72.7052 0.244615 67.8982C0.236146 67.2536 0.227676 66.609 0.21895 65.9449C0.195654 63.8255 0.194556 61.7069 0.195787 59.5874C0.188681 58.1068 0.180982 56.6261 0.172716 55.1455C0.159288 52.0462 0.157695 48.9472 0.163561 45.8479C0.169457 41.8854 0.138864 37.9241 0.0984437 33.9619C0.0725352 30.9051 0.0696921 27.8486 0.0733354 24.7918C0.0716472 23.3314 0.0620334 21.871 0.0441911 20.4107C-0.095348 7.57923 -0.0953481 7.57923 3.07665 3.64184C7.57391 -0.0437977 11.2873 0.372687 16.9001 0.373816Z" fill="#09A89C"/>
<path d="M215.665 172.521C242.395 172.521 269.125 172.521 296.665 172.521C297.41 187.452 298.152 202.332 298.524 217.266C298.727 225.294 298.983 233.307 299.456 241.324C302.436 292.864 302.436 292.864 288.545 309.582C280.582 318.474 271.42 325.92 261.787 332.916C255.872 337.388 250.53 342.509 245.336 347.787C244.502 348.627 244.502 348.627 243.651 349.484C241.903 351.244 240.158 353.007 238.415 354.771C236.1 357.112 233.782 359.451 231.461 361.787C230.938 362.318 230.415 362.849 229.877 363.397C224.765 368.542 224.765 368.542 221.665 370.521C218.661 370.256 217.832 369.688 215.665 367.521C215.471 364.938 215.404 362.462 215.424 359.878C215.422 359.08 215.421 358.282 215.419 357.459C215.416 354.771 215.427 352.082 215.438 349.394C215.438 347.472 215.438 345.551 215.437 343.629C215.436 338.4 215.448 333.171 215.462 327.942C215.474 322.482 215.475 317.022 215.478 311.562C215.484 301.217 215.5 290.872 215.521 280.527C215.543 268.752 215.554 256.978 215.564 245.203C215.585 220.975 215.622 196.748 215.665 172.521Z" fill="#434345"/>
<path d="M284.665 43.5209C299.164 43.4274 313.663 43.3571 328.163 43.3136C334.895 43.293 341.628 43.2649 348.36 43.2191C354.857 43.1749 361.354 43.1517 367.851 43.1414C370.33 43.134 372.809 43.1195 375.288 43.098C378.76 43.0689 382.231 43.0649 385.702 43.0668C387.241 43.0452 387.241 43.0452 388.81 43.0232C394.732 43.0574 398.163 43.551 402.665 47.5209C404.101 50.3944 403.816 52.8829 403.842 56.0944C403.848 56.7694 403.855 57.4444 403.861 58.1398C403.881 60.3775 403.893 62.6152 403.903 64.8529C403.907 65.6171 403.911 66.3813 403.915 67.1687C403.936 71.2139 403.95 75.2591 403.96 79.3043C403.971 83.4809 404.005 87.6569 404.045 91.8332C404.071 95.046 404.079 98.2587 404.083 101.472C404.088 103.011 404.099 104.55 404.118 106.09C404.142 108.247 404.141 110.402 404.135 112.559C404.14 113.786 404.146 115.012 404.152 116.276C403.569 120.158 402.394 121.751 399.665 124.521C396.585 126.574 395.977 126.77 392.507 126.761C391.662 126.764 390.816 126.767 389.945 126.77C389.021 126.763 388.097 126.755 387.144 126.748C386.168 126.748 385.193 126.749 384.187 126.749C380.957 126.747 377.727 126.732 374.497 126.716C372.259 126.712 370.021 126.71 367.783 126.708C361.89 126.7 355.996 126.68 350.102 126.658C344.09 126.638 338.077 126.629 332.065 126.619C320.265 126.597 308.465 126.563 296.665 126.521C296.665 131.141 296.665 135.761 296.665 140.521C269.935 140.521 243.205 140.521 215.665 140.521C215.665 131.611 215.665 122.701 215.665 113.521C218.284 113.418 220.903 113.315 223.602 113.208C240.733 112.328 258.907 110.205 271.665 97.5209C282.108 84.6957 283.89 73.0756 284.29 56.8959C284.328 55.6055 284.367 54.3152 284.407 52.9857C284.5 49.8309 284.586 46.6761 284.665 43.5209Z" fill="#434346"/>
<path d="M151.414 42.574C152.306 42.5726 153.199 42.5712 154.118 42.5698C155.1 42.5734 156.081 42.5771 157.093 42.5808C158.64 42.5806 158.64 42.5806 160.219 42.5803C163.641 42.581 167.063 42.5889 170.485 42.5968C172.853 42.5986 175.221 42.6001 177.589 42.6011C183.831 42.6049 190.073 42.6148 196.314 42.6259C202.68 42.6362 209.045 42.6408 215.411 42.6459C227.908 42.6567 241.475 43.0487 253.972 43.0698C254.097 47.7071 253.972 52.5698 253.972 57.0698C253.997 58.6463 253.928 59.9937 253.972 61.5698C254.033 63.8409 253.95 65.7981 253.972 68.0698C253.998 68.7703 253.945 69.8482 253.972 70.5698C253.974 74.5091 253.014 75.9876 250.472 79.0698C246.647 82.1354 244.472 82.0698 239.972 82.5698C238.742 82.5697 237.239 82.5699 235.972 82.5698C234.625 82.5647 233.819 82.5752 232.472 82.5698C231.098 82.5679 229.346 82.5708 227.972 82.5698C224.353 82.566 220.591 82.581 216.972 82.5698C213.279 82.5595 209.664 82.5748 205.972 82.5698C198.726 82.5596 192.525 82.6971 185.472 82.5698C185.472 97.5141 185.044 111.173 185.044 126.57C176.757 126.663 176.499 125.975 168.044 126.07C166.312 126.097 164.329 126.042 162.544 126.07C161.155 126.079 159.933 126.063 158.544 126.07C157.836 126.085 155.274 126.054 154.544 126.07C150.044 126.07 148.588 126.05 144.544 123.57C140.441 119.187 139.979 115.515 139.913 109.7C139.897 108.39 139.881 107.08 139.864 105.731C139.853 104.303 139.842 102.876 139.832 101.448C139.827 100.727 139.821 100.005 139.816 99.2619C139.789 95.4443 139.769 91.6268 139.755 87.8092C139.741 84.6562 139.713 81.5038 139.672 78.3511C139.623 74.5357 139.598 70.7209 139.591 66.9053C139.584 65.4552 139.568 64.0052 139.544 62.5553C139.344 49.8014 139.344 49.8014 142.532 45.8472C145.819 43.1461 147.273 42.5691 151.414 42.574Z" fill="#02746C"/>
<path d="M284.665 43.521C288.625 43.521 292.585 43.521 296.665 43.521C296.665 75.531 296.665 107.541 296.665 140.521C269.935 140.521 243.205 140.521 215.665 140.521C215.665 131.611 215.665 122.701 215.665 113.521C218.284 113.418 220.903 113.315 223.602 113.208C240.733 112.328 258.907 110.205 271.665 97.521C282.108 84.6958 283.89 73.0757 284.29 56.896C284.328 55.6056 284.367 54.3153 284.407 52.9858C284.5 49.8311 284.583 46.6761 284.665 43.521Z" fill="#272729"/>
<path d="M141.665 81.521C155.855 81.521 170.045 81.521 184.665 81.521C184.665 96.371 184.665 111.221 184.665 126.521C176.435 126.614 176.435 126.614 168.04 126.708C166.319 126.736 164.599 126.763 162.826 126.791C161.447 126.8 161.424 125.564 160.044 125.57C158.989 125.593 157.621 125.546 156.544 125.57C150.899 125.573 147.045 125.629 142.808 121.877C141.065 118.285 141.297 114.722 141.372 110.818C141.375 110.075 141.378 109.332 141.381 108.566C141.396 105.801 141.438 103.036 141.477 100.271C141.539 94.0835 141.601 87.896 141.665 81.521Z" fill="#035A51"/>
<path d="M215.665 113.521C215.995 113.521 216.325 113.521 216.665 113.521C216.665 117.811 216.665 122.101 216.665 126.521C243.065 126.521 269.465 126.521 296.665 126.521C296.665 131.141 296.665 135.761 296.665 140.521C269.935 140.521 243.205 140.521 215.665 140.521C215.665 131.611 215.665 122.701 215.665 113.521Z" fill="#3F4042"/>
<path d="M146.665 124.521C147.163 124.679 147.662 124.838 148.175 125.001C151.601 125.716 155.007 125.757 158.493 125.837C159.242 125.858 159.991 125.879 160.762 125.9C163.146 125.966 165.53 126.025 167.915 126.083C169.534 126.127 171.154 126.17 172.774 126.214C176.737 126.321 180.701 126.423 184.665 126.521C184.733 157.172 184.786 187.823 184.818 218.474C184.821 222.09 184.825 225.706 184.829 229.323C184.83 230.042 184.831 230.762 184.832 231.504C184.845 243.171 184.868 254.838 184.896 266.505C184.924 278.47 184.941 290.436 184.947 302.402C184.951 309.125 184.96 315.848 184.982 322.572C185.002 328.894 185.008 335.216 185.004 341.539C185.005 343.865 185.011 346.19 185.022 348.516C185.037 351.681 185.034 354.846 185.025 358.011C185.034 358.94 185.043 359.869 185.052 360.826C185.046 361.672 185.04 362.517 185.034 363.388C185.035 364.119 185.036 364.85 185.037 365.603C184.554 368.091 183.66 369.002 181.665 370.521C177.231 370.412 174.994 368.412 171.852 365.458C171.062 364.725 170.272 363.992 169.458 363.236C168.866 362.67 168.274 362.104 167.665 361.521C168.655 361.191 169.645 360.861 170.665 360.521C172.19 361.754 173.711 362.994 175.168 364.306C176.928 365.735 178.418 366.262 180.665 366.521C181.452 363.733 181.792 361.252 181.803 358.359C181.809 357.532 181.814 356.706 181.82 355.854C181.821 354.951 181.822 354.049 181.823 353.118C181.828 352.155 181.833 351.192 181.838 350.2C181.853 346.965 181.861 343.73 181.87 340.495C181.879 338.179 181.889 335.863 181.9 333.547C181.927 327.252 181.948 320.957 181.968 314.662C181.99 308.086 182.017 301.511 182.044 294.935C182.088 283.895 182.129 272.856 182.167 261.816C182.207 250.446 182.248 239.075 182.292 227.704C182.295 227.003 182.298 226.302 182.3 225.58C182.314 222.064 182.328 218.548 182.342 215.032C182.456 185.861 182.562 156.691 182.665 127.521C181.681 127.526 180.697 127.531 179.683 127.537C176.032 127.555 172.381 127.566 168.73 127.576C167.15 127.581 165.57 127.588 163.99 127.596C161.719 127.609 159.448 127.614 157.176 127.619C156.117 127.626 156.117 127.626 155.036 127.634C151.962 127.635 149.606 127.501 146.665 126.521C146.665 125.861 146.665 125.201 146.665 124.521Z" fill="#2BA095"/>
<path d="M128.665 321.521C132.243 322.117 134.209 323.521 136.915 325.896C137.621 326.502 138.327 327.108 139.055 327.732C140.665 329.521 140.665 329.521 140.665 332.521C141.251 332.78 141.838 333.039 142.442 333.306C144.821 334.606 146.354 336.01 148.227 337.958C148.806 338.555 149.385 339.152 149.981 339.767C150.537 340.346 151.092 340.925 151.665 341.521C152.23 342.048 152.796 342.575 153.379 343.119C154.665 344.521 154.665 344.521 154.665 346.521C155.251 346.793 155.838 347.065 156.442 347.345C161.742 350.149 165.974 354.14 168.665 359.521C165.665 359.521 165.665 359.521 163.899 358.123C163.248 357.469 162.598 356.814 161.927 356.14C161.187 355.403 160.446 354.665 159.683 353.905C158.89 353.099 158.096 352.293 157.278 351.462C156.461 350.644 155.644 349.825 154.802 348.981C153.075 347.247 151.351 345.509 149.63 343.768C146.985 341.091 144.329 338.425 141.67 335.761C139.997 334.079 138.325 332.396 136.653 330.712C135.853 329.908 135.053 329.104 134.229 328.276C133.498 327.535 132.767 326.794 132.013 326.031C131.365 325.376 130.717 324.721 130.049 324.046C128.665 322.521 128.665 322.521 128.665 321.521Z" fill="#34A59B"/>
<path d="M5.66455 1.521C6.32455 1.851 6.98455 2.181 7.66455 2.521C7.1801 3.37258 6.69566 4.22417 6.19653 5.10156C4.55532 8.76481 4.24429 11.2442 4.15283 15.2319C4.09966 17.0979 4.09966 17.0979 4.04541 19.0015C4.02285 20.2867 4.00029 21.5719 3.97705 22.896C3.94289 24.2044 3.90873 25.5128 3.87354 26.8608C3.79127 30.0808 3.72205 33.3005 3.66455 36.521C3.33455 36.521 3.00455 36.521 2.66455 36.521C2.4223 32.1803 2.20742 27.8393 2.01758 23.4961C1.94921 22.0195 1.87343 20.5432 1.79004 19.0674C1.6713 16.943 1.57945 14.8188 1.49268 12.6929C1.39841 10.7762 1.39841 10.7762 1.30225 8.8208C1.66455 5.521 1.66455 5.521 3.67529 3.07275C4.33175 2.56067 4.9882 2.04859 5.66455 1.521Z" fill="#15A69B"/>
<path d="M246.665 1.521C249.102 2.7085 249.102 2.7085 251.665 4.521C252.924 8.5271 252.604 12.1905 252.227 16.3335C252.125 17.4949 252.023 18.6564 251.918 19.853C251.835 20.7335 251.751 21.6139 251.665 22.521C251.335 22.521 251.005 22.521 250.665 22.521C250.627 21.4008 250.59 20.2806 250.551 19.1265C250.486 17.6538 250.419 16.1811 250.352 14.7085C250.329 13.9705 250.307 13.2325 250.284 12.4722C250.141 8.22988 250.141 8.22988 248.122 4.63428C247.641 4.26689 247.16 3.89951 246.665 3.521C246.665 2.861 246.665 2.201 246.665 1.521Z" fill="#2BA29A"/>
<path d="M251.665 70.521C251.995 70.521 252.325 70.521 252.665 70.521C252.977 72.7085 252.977 72.7085 252.665 75.521C250.165 78.3335 250.165 78.3335 247.665 80.521C246.345 79.861 245.025 79.201 243.665 78.521C244.985 78.521 246.305 78.521 247.665 78.521C248.098 77.3763 248.098 77.3763 248.54 76.2085C249.665 73.521 249.665 73.521 251.665 70.521Z" fill="#207169"/>
<path d="M5.66455 1.521C6.32455 1.851 6.98455 2.181 7.66455 2.521C6.34455 4.831 5.02455 7.141 3.66455 9.521C3.00455 8.201 2.34455 6.881 1.66455 5.521C2.98455 4.201 4.30455 2.881 5.66455 1.521Z" fill="#30A59C"/>
</svg>
