<svg id="Layer_3" data-name="Layer 3" xmlns="http://www.w3.org/2000/svg" viewBox="0 0 100 100"><path d="M15,24.51V76.23A8.8,8.8,0,0,0,23.77,85H75.49a8.79,8.79,0,0,0,8.78-8.79V24.51a8.79,8.79,0,0,0-8.78-8.78H23.77A8.79,8.79,0,0,0,15,24.51Zm65.29,0V76.23A4.79,4.79,0,0,1,75.49,81H23.77A4.8,4.8,0,0,1,19,76.23V24.51a4.79,4.79,0,0,1,4.79-4.78H75.49A4.78,4.78,0,0,1,80.27,24.51Z"/><path d="M50,74A24.18,24.18,0,1,0,25.82,49.83,24.21,24.21,0,0,0,50,74Zm0-44.36A20.18,20.18,0,1,1,29.82,49.83,20.2,20.2,0,0,1,50,29.65Z"/><path d="M39.5,55.14A5.14,5.14,0,1,0,34.36,50,5.15,5.15,0,0,0,39.5,55.14Zm0-6.28A1.14,1.14,0,1,1,38.36,50,1.14,1.14,0,0,1,39.5,48.86Z"/><path d="M61.14,55.14A5.14,5.14,0,1,0,56,50,5.14,5.14,0,0,0,61.14,55.14Zm0-6.28A1.14,1.14,0,1,1,60,50,1.14,1.14,0,0,1,61.14,48.86Z"/></svg>