<?xml version="1.0" encoding="utf-8"?>
<!-- Generator: Adobe Illustrator 25.2.3, SVG Export Plug-In . SVG Version: 6.00 Build 0)  -->
<svg version="1.1" id="Layer_51" xmlns="http://www.w3.org/2000/svg" xmlns:xlink="http://www.w3.org/1999/xlink" x="0px" y="0px"
	 viewBox="0 0 64 64" style="enable-background:new 0 0 64 64;" xml:space="preserve">
<g id="tools-help-support-service-setting">
	<g>
		<path d="M32,2C15.46,2,2,15.46,2,32c0,16.54,13.46,30,30,30s30-13.46,30-30C62,15.46,48.54,2,32,2z M32,60C16.56,60,4,47.44,4,32
			S16.56,4,32,4s28,12.56,28,28S47.44,60,32,60z"/>
		<path d="M43.48,36.41C44,35.29,43.82,33.92,42.9,33c-1.13-1.13-3.11-1.13-4.24,0l-0.71,0.71l-1-1l1.6-1.6
			c0.68-0.68,1.66-0.98,2.71-0.81c2.82,0.41,5.7-0.53,7.71-2.54c2.61-2.61,3.36-6.48,1.93-9.88c-0.13-0.31-0.41-0.53-0.73-0.59
			c-0.33-0.07-0.67,0.04-0.9,0.27l-4.87,4.87l-2.36-0.47l-0.47-2.36l4.87-4.87c0.23-0.23,0.34-0.57,0.27-0.9
			c-0.06-0.32-0.28-0.6-0.59-0.73c-3.4-1.43-7.27-0.67-9.88,1.93c-2.01,2.01-2.95,4.89-2.53,7.71c0.15,1.05-0.14,2.04-0.82,2.71
			l-1.6,1.6l-6.66-6.66l-1.35-2.69c-0.09-0.18-0.23-0.33-0.4-0.42l-6.36-3.53c-0.4-0.22-0.88-0.15-1.2,0.16l-1.41,1.41
			c-0.31,0.32-0.38,0.8-0.16,1.2l3.53,6.36c0.09,0.17,0.24,0.31,0.42,0.4l2.69,1.35l6.66,6.66l-1.6,1.6
			c-0.67,0.68-1.66,0.98-2.71,0.81c-2.82-0.41-5.7,0.53-7.71,2.54c-2.6,2.61-3.36,6.48-1.93,9.88c0.13,0.31,0.41,0.53,0.73,0.59
			c0.33,0.07,0.67-0.04,0.9-0.27l4.87-4.87l2.36,0.47l0.47,2.36l-4.87,4.87c-0.23,0.23-0.34,0.57-0.27,0.9
			c0.06,0.32,0.28,0.6,0.59,0.73c1.14,0.48,2.34,0.71,3.52,0.71c2.34,0,4.63-0.91,6.36-2.64c2.01-2.01,2.95-4.89,2.53-7.71
			c-0.15-1.05,0.14-2.03,0.82-2.71l1.6-1.6l1,1L33,38.66c-1.17,1.17-1.17,3.07,0,4.24c0.57,0.57,1.32,0.88,2.12,0.88
			c0.46,0,0.89-0.11,1.29-0.3l5.9,5.9c0.98,0.98,2.26,1.47,3.54,1.47c1.28,0,2.56-0.49,3.53-1.47c0.95-0.94,1.47-2.19,1.47-3.53
			c0-1.34-0.52-2.59-1.47-3.54L43.48,36.41z M21.69,23.1c-0.08-0.07-0.17-0.14-0.26-0.18l-2.56-1.29l-3.01-5.43l0.34-0.34l5.43,3.01
			l1.29,2.56c0.04,0.09,0.11,0.18,0.18,0.26l6.78,6.77l-1.42,1.42L21.69,23.1z M29.69,37.13c-1.11,1.12-1.63,2.77-1.37,4.43
			c0.33,2.22-0.39,4.41-1.98,6c-1.65,1.65-3.95,2.34-6.18,1.94l4.06-4.06c0.24-0.24,0.34-0.58,0.28-0.91L23.79,41
			c-0.08-0.4-0.39-0.71-0.79-0.79l-3.53-0.71c-0.33-0.06-0.67,0.04-0.91,0.28l-4.06,4.06c-0.4-2.22,0.29-4.53,1.94-6.18
			c1.59-1.59,3.77-2.31,6-1.98c1.65,0.25,3.31-0.26,4.43-1.37l7.43-7.44c1.14-1.13,1.64-2.75,1.38-4.43c-0.33-2.22,0.39-4.41,1.98-6
			c1.65-1.65,3.96-2.34,6.18-1.94l-4.06,4.06c-0.24,0.24-0.34,0.58-0.28,0.91L40.21,23c0.08,0.4,0.39,0.71,0.79,0.79l3.53,0.71
			c0.33,0.06,0.67-0.04,0.9-0.28l4.07-4.06c0.4,2.22-0.29,4.53-1.94,6.18c-1.59,1.59-3.77,2.31-6,1.98
			c-1.66-0.25-3.31,0.26-4.43,1.37L29.69,37.13z M36.54,35.12l-1.42,1.42l-1-1l1.42-1.42L36.54,35.12z M35.83,41.49
			c-0.38,0.37-1.04,0.37-1.42,0c-0.39-0.39-0.39-1.03,0-1.42l5.66-5.66c0.19-0.18,0.44-0.29,0.71-0.29c0.26,0,0.52,0.11,0.71,0.29
			c0.39,0.39,0.39,1.03,0,1.42L35.83,41.49z M47.97,47.97c-1.17,1.17-3.07,1.17-4.24,0l-5.78-5.78l4.24-4.24l5.78,5.78
			c0.57,0.56,0.88,1.32,0.88,2.12S48.54,47.4,47.97,47.97z"/>
		<path d="M27.189,8.484c4.458-0.909,9.175-0.525,13.422,1.112c0.118,0.045,0.239,0.067,0.359,0.067c0.401,0,0.78-0.244,0.933-0.641
			c0.199-0.516-0.058-1.094-0.573-1.293c-4.602-1.775-9.709-2.193-14.541-1.206c-0.541,0.111-0.89,0.639-0.78,1.18
			C26.12,8.246,26.646,8.593,27.189,8.484z"/>
		<path d="M22.279,9.968c0.13,0,0.262-0.026,0.39-0.08c0.34-0.144,0.684-0.281,1.032-0.41c0.518-0.192,0.782-0.767,0.59-1.285
			c-0.192-0.519-0.768-0.782-1.285-0.59c-0.376,0.14-0.749,0.287-1.117,0.443c-0.508,0.215-0.746,0.802-0.531,1.311
			C21.519,9.739,21.889,9.968,22.279,9.968z"/>
		<path d="M36.811,55.516c-4.457,0.909-9.176,0.525-13.421-1.112c-0.517-0.198-1.094,0.059-1.293,0.573
			c-0.199,0.516,0.058,1.094,0.573,1.293C25.648,57.418,28.787,58,32,58c1.753,0,3.506-0.176,5.211-0.524
			c0.541-0.111,0.89-0.639,0.779-1.18C37.88,55.754,37.352,55.406,36.811,55.516z"/>
		<path d="M41.331,54.112c-0.339,0.144-0.684,0.28-1.031,0.409c-0.518,0.192-0.782,0.767-0.59,1.285
			c0.149,0.403,0.531,0.653,0.938,0.653c0.115,0,0.233-0.021,0.348-0.063c0.377-0.14,0.749-0.287,1.117-0.443
			c0.508-0.215,0.746-0.802,0.53-1.311C42.426,54.132,41.84,53.896,41.331,54.112z"/>
	</g>
</g>
</svg>
