<?xml version="1.0" encoding="utf-8"?>
<!-- Generator: Adobe Illustrator 24.3.0, SVG Export Plug-In . SVG Version: 6.00 Build 0)  -->
<svg version="1.1" id="Layer_1" xmlns="http://www.w3.org/2000/svg" xmlns:xlink="http://www.w3.org/1999/xlink" x="0px" y="0px"
	 viewBox="0 0 64 64" enable-background="new 0 0 64 64" xml:space="preserve">
<path d="M60,37l1-8.9c0-0.1,0-0.2,0-0.4l-0.8-3.2l0.4-0.2c0.3-0.1,0.5-0.4,0.5-0.6c0.1-0.3,0-0.6-0.1-0.8l-7.2-11
	c-0.2-0.3-0.5-0.4-0.8-0.4l-1.8-0.1c1.3-1.7,1.6-4.1,0.7-6.1c-0.7-1.5-1.9-2.6-3.4-3.1c-1.5-0.6-3.1-0.5-4.6,0.2
	c-1.5,0.7-2.6,1.9-3.1,3.4c-0.2,0.5-0.3,1-0.3,1.5l-4.6,1.1l0.5,1.9l4.3-1c0.1,0.4,0.2,0.7,0.4,1.1c1,2.1,3,3.3,5.1,3.5l-1.1,1.4
	c-0.2,0.3-0.3,0.6-0.2,0.9l1.5,5.3L44,24l-2-6.3c-0.1-0.3-0.3-0.5-0.5-0.6C41.2,17,40.9,17,40.7,17l-20,6.4
	c-0.3,0.1-0.5,0.3-0.6,0.5C20,24.2,20,24.5,20,24.8l2.8,8.6l-5.2-1.1L17,27.8c0-0.3-0.3-0.6-0.5-0.7l-1.6-0.8c1.9-1,3.2-3,3.2-5.3
	c0-0.4,0-0.8-0.1-1.2l4.3-0.9l-0.4-2l-4.6,0.9c-1-1.8-3-2.9-5.2-2.9c-3.3,0-6,2.7-6,6c0,2.3,1.3,4.3,3.2,5.3l-1.6,0.8
	c-0.3,0.1-0.5,0.4-0.5,0.7l-2,13c0,0.3,0,0.6,0.2,0.8S5.7,42,6,42h0.1L7,50L5.2,60H2v2h23c0.6,0,1-0.4,1-1V49h36v-2h-0.2L60,37z
	 M42.6,6.5c0.4-1,1.1-1.8,2.1-2.2c0.5-0.2,1.1-0.4,1.7-0.4c0.5,0,0.9,0.1,1.4,0.3c0.6,0.2,1.1,0.6,1.5,1l-6.7,1.6
	C42.5,6.6,42.6,6.5,42.6,6.5z M42.7,9.5c-0.1-0.2-0.2-0.5-0.3-0.7l7.8-1.8c0.4,1.8-0.5,3.7-2.2,4.5c0,0,0,0-0.1,0
	C46,12.4,43.6,11.5,42.7,9.5z M46.7,16.1l2.2-2.7l3.5,0.1l6.3,9.6l-8.8,4l-0.2-0.6l3.8-3.3l-1.3-1.5l-7.4,6.5
	c-0.3,0.2-0.7,0.2-0.9,0c-0.3-0.3-0.3-0.7,0-0.9l7.5-8.6l-1.5-1.3l-2.1,2.4L46.7,16.1z M40.3,19.3l2.1,6.5l-0.2,0.2
	c-0.9,1-0.9,2.7,0.1,3.7c0.2,0.2,0.3,0.3,0.5,0.4l-17.1,5.5c-0.1-0.4-0.3-0.7-0.5-1l-3-9.4L40.3,19.3z M12,17c1.2,0,2.3,0.5,3,1.4
	l-6.8,1.4C8.8,18.2,10.2,17,12,17z M8.1,21.8l7.8-1.6c0,0.2,0.1,0.5,0.1,0.8c0,2.2-1.8,4-4,4C10.1,25,8.5,23.6,8.1,21.8z M8.9,28.7
	l3.1-1.5l3.1,1.5l0.5,3.1l-2.9-0.6l-0.4,2l11.2,2.5c0.3,0.1,0.6,0.4,0.5,0.8c-0.1,0.4-0.4,0.6-0.7,0.6L13.4,36l-0.2,2l3.4,0.3
	l0.3,1.7H7.2L8.9,28.7z M13.2,60h-2.7l2.5-6.6c0-0.1,0.1-0.2,0.1-0.4v-5.2l1.9,2.5L13.2,60z M7.2,60L9,50.2c0-0.1,0-0.2,0-0.3
	L8.1,42h0.4l2.5,3.2v7.6L8.3,60H7.2z M15.2,60l1.8-9.8c0.1-0.3,0-0.6-0.2-0.8L11,42h5.3l3.5,7.1L16.3,60H15.2z M25,47
	c-0.6,0-1,0.4-1,1v12h-5.6l3.6-10.7c0.1-0.3,0.1-0.5-0.1-0.8l-3.4-6.7c0.1-0.1,0.2-0.1,0.2-0.2c0.2-0.2,0.3-0.5,0.2-0.8l-0.4-2.4
	l4.4,0.4c0.1,0,0.2,0,0.2,0c0.9,0,1.7-0.4,2.2-1.1l19.9-6.4c0.3-0.1,0.5-0.3,0.6-0.5c0.1-0.2,0.1-0.5,0.1-0.8l-0.1-0.2
	c0.1-0.1,0.1-0.1,0.2-0.2L48,28l0.2,0.8c0,0.1,0.1,0.1,0.1,0.2l-3.3,6.5c-0.1,0.2-0.1,0.5-0.1,0.8L48.6,47H25z M52.1,37.3l1.9-2.5
	V40c0,0.1,0,0.2,0.1,0.4l2.5,6.6h-2.7L52.1,37.3z M58.7,47L56,39.8v-7.6l0.8-1L55.2,30l-5,6.4C50,36.6,50,36.9,50,37.2l1.8,9.8h-1.1
	l-3.6-10.9l3.5-7.1l7.7-3.5l0.7,2.6l-1,8.8c0,0.1,0,0.2,0,0.3l1.8,9.8H58.7z"/>
<rect x="26.8" y="31" transform="matrix(0.9487 -0.3162 0.3162 0.9487 -8.5798 11.129)" width="6.3" height="2"/>
</svg>
