<?xml version="1.0" encoding="UTF-8"?><svg width="512" height="512" version="1.1" viewBox="0 0 512 512" xmlns="http://www.w3.org/2000/svg" xmlns:xlink="http://www.w3.org/1999/xlink"><!--Generated by IJSVG (https://github.com/iconjar/IJSVG)--><g transform="scale(20.48)"><path fill="#000" d="M22.354,13.146l-2,-2l-1.854,-1.853v-3.293c0,-0.276 -0.224,-0.5 -0.5,-0.5c-0.276,0 -0.5,0.224 -0.5,0.5v2.293l-4.646,-4.646c-0.195,-0.195 -0.512,-0.195 -0.707,0l-7.5,7.5l-2,2c-0.195,0.195 -0.195,0.512 0,0.707c0.097,0.097 0.225,0.146 0.353,0.146c0.128,0 0.256,-0.049 0.354,-0.146l1.146,-1.147v8.293c0,0.276 0.224,0.5 0.5,0.5h5c0.276,0 0.5,-0.224 0.5,-0.5v-5.5h4v5.5c0,0.276 0.224,0.5 0.5,0.5h5c0.276,0 0.5,-0.224 0.5,-0.5v-8.293l1.146,1.146c0.098,0.098 0.226,0.147 0.354,0.147c0.128,0 0.256,-0.049 0.354,-0.146c0.195,-0.196 0.195,-0.512 0,-0.708Zm-2.854,7.354h-4v-5.5c0,-0.276 -0.224,-0.5 -0.5,-0.5h-5c-0.276,0 -0.5,0.224 -0.5,0.5v5.5h-4v-8.793l7,-7l5.146,5.146c0,0.001 0,0.001 0.001,0.002l1.853,1.853v8.792Z"></path></g></svg>