<?xml version="1.0" encoding="utf-8"?>
<!-- Generator: Adobe Illustrator 25.4.1, SVG Export Plug-In . SVG Version: 6.00 Build 0)  -->
<svg version="1.1" id="Layer_1" xmlns="http://www.w3.org/2000/svg" xmlns:xlink="http://www.w3.org/1999/xlink" x="0px" y="0px"
	 viewBox="0 0 5000 5000" style="enable-background:new 0 0 5000 5000;" xml:space="preserve">
<title>Cute AdorableChef Cartoon SVG</title>
<desc>This design could show a chef in a chef hat, holding a spatula or whisk, with a happy expression</desc>
<metadata><?xpacket begin="﻿" id="W5M0MpCehiHzreSzNTczkc9d"?>
<x:xmpmeta xmlns:x="adobe:ns:meta/" x:xmptk="Adobe XMP Core 7.1-c000 79.4d2f597, 2021/09/01-20:51:22        ">
   <rdf:RDF xmlns:rdf="http://www.w3.org/1999/02/22-rdf-syntax-ns#">
      <rdf:Description rdf:about=""
            xmlns:dc="http://purl.org/dc/elements/1.1/"
            xmlns:xmp="http://ns.adobe.com/xap/1.0/"
            xmlns:xmpMM="http://ns.adobe.com/xap/1.0/mm/"
            xmlns:stEvt="http://ns.adobe.com/xap/1.0/sType/ResourceEvent#">
         <dc:subject>
            <rdf:Bag>
               <rdf:li>Cute</rdf:li>
               <rdf:li>Adorable</rdf:li>
               <rdf:li>Chef</rdf:li>
               <rdf:li>Cartoon</rdf:li>
               <rdf:li>SVG</rdf:li>
               <rdf:li>Vector</rdf:li>
               <rdf:li>Graphic</rdf:li>
               <rdf:li>Coloring page</rdf:li>
               <rdf:li>Cooking</rdf:li>
               <rdf:li>Baking</rdf:li>
               <rdf:li>Kitchen</rdf:li>
               <rdf:li>Food</rdf:li>
               <rdf:li>Utensils</rdf:li>
               <rdf:li>Chef hat</rdf:li>
               <rdf:li>Apron</rdf:li>
               <rdf:li>Smile</rdf:li>
               <rdf:li>Happy</rdf:li>
               <rdf:li>Joyful</rdf:li>
               <rdf:li>Child-friendly</rdf:li>
               <rdf:li>Character.</rdf:li>
            </rdf:Bag>
         </dc:subject>
         <dc:description>
            <rdf:Alt>
               <rdf:li xml:lang="x-default">This design could show a chef in a chef hat, holding a spatula or whisk, with a happy expression</rdf:li>
            </rdf:Alt>
         </dc:description>
         <dc:title>
            <rdf:Alt>
               <rdf:li xml:lang="x-default">Cute AdorableChef Cartoon SVG</rdf:li>
            </rdf:Alt>
         </dc:title>
         <xmp:MetadataDate>2023-02-24T09:23:06+07:00</xmp:MetadataDate>
         <xmpMM:InstanceID>xmp.iid:4493b1c8-0525-3740-8c21-254f172a05c0</xmpMM:InstanceID>
         <xmpMM:DocumentID>xmp.did:4493b1c8-0525-3740-8c21-254f172a05c0</xmpMM:DocumentID>
         <xmpMM:OriginalDocumentID>xmp.did:4493b1c8-0525-3740-8c21-254f172a05c0</xmpMM:OriginalDocumentID>
         <xmpMM:History>
            <rdf:Seq>
               <rdf:li>
                  <rdf:Description>
                     <stEvt:action>saved</stEvt:action>
                     <stEvt:instanceID>xmp.iid:4493b1c8-0525-3740-8c21-254f172a05c0</stEvt:instanceID>
                     <stEvt:when>2023-02-24T09:23:06+07:00</stEvt:when>
                     <stEvt:softwareAgent>Adobe Bridge 2022 (Windows)</stEvt:softwareAgent>
                     <stEvt:changed>/metadata</stEvt:changed>
                  </rdf:Description>
               </rdf:li>
            </rdf:Seq>
         </xmpMM:History>
      </rdf:Description>
   </rdf:RDF>
</x:xmpmeta>
                                                                                                    
                                                                                                    
                                                                                                    
                                                                                                    
                                                                                                    
                                                                                                    
                                                                                                    
                                                                                                    
                                                                                                    
                                                                                                    
                                                                                                    
                                                                                                    
                                                                                                    
                                                                                                    
                                                                                                    
                                                                                                    
                                                                                                    
                                                                                                    
                                                                                                    
                                                                                                    
                           
<?xpacket end="w"?></metadata>
<g>
	<path d="M3640.5,2124.48c-17.83,11.39-17.41,11.33-14.5,31.86c11.55,81.67,13.49,163.45,1.7,245.3
		c-1.86,12.93-1.91,12.88,9.34,18.76c7.72,4.03,15.48,8,23.02,12.34c54.72,31.51,83.61,81.19,98.48,140.61
		c2.49,9.94,4.35,20.04,6.7,30.01c3.24,13.75,3.31,13.85,16.97,14.11c15.9,0.31,31.8,0.54,47.69,0.57
		c29.24,0.05,58.46,1.67,87.66,1.82c24.21,0.12,45.39,18.94,50.02,43.92c2.88,15.53,3.74,31.64-5.07,46.34
		c-3.02,5.04-2.82,10.86-2.82,16.49c-0.1,118.99-0.37,237.97-0.1,356.96c0.08,37.82,1.41,75.64-0.66,113.46
		c-2.56,46.84-20.92,85.13-60.78,111.58c-13.66,9.06-27.48,17.91-41.56,26.31c-22.13,13.2-36.3,32.61-45.8,56.07
		c-18.55,45.86-24.92,94.13-26.32,142.93c-1.89,66.14,0.75,132.3,2.02,198.44c0.15,7.75,2.37,12.79,9.38,17.45
		c19.23,12.8,27.9,30.92,27.83,54.77c-0.34,109.25-4.13,218.45-4.69,327.69c-0.33,64.67-4.6,129.09-10.97,193.42
		c-11.39,115.1-33.52,228.04-67.1,338.73c-2.84,9.37-6.56,18.31-11.44,26.79c-10.68,18.58-27.63,25.62-47.94,24.22
		c-18.46-1.27-28.84-14.07-35.99-29.73c-2.54-5.56-4.48-11.49-5.9-17.44c-12.55-52.31-26.82-104.24-35.83-157.33
		c-8.74-51.55-15.96-103.29-20.33-155.45c-7.42-88.5-8.73-177.17-9.66-265.9c-0.88-83.59-2.73-167.17-3.99-250.76
		c-0.24-15.89,0.6-31.79,0.39-47.68c-0.31-23.88,12.6-38.45,33.42-46.45c6.83-2.62,8.24-5.87,8.2-12.08
		c-0.47-72.31,0-144.65-1.56-216.93c-0.72-33.34-7.46-66.44-18.36-97.94c-13.11-37.88-36.38-68.55-72.95-87.63
		c-9.97-5.2-19.53-11.23-29.1-17.17c-42-26.07-60.55-65.35-62.94-113.33c-1.48-29.65-4.4-59.3-1.17-89.64
		c-115.03,143.51-261.97,239.87-435.97,298.83c43.09,32.83,81.5,68.43,115.48,108.16c41.66,48.7,80.23,99.87,109.46,157.45
		c35.84,70.6,66.36,143.22,83.69,220.73c8.72,38.99,16.86,78.21,17.77,118.41c0.23,10.32,3.94,17.91,11.49,25.46
		c22.02,22.03,34.25,49.75,40.03,79.94c17.93,93.58-12.6,170.62-82.56,232.92c-25.84,23.01-57.82,34.02-91.53,40.98
		c-35.31,7.29-69.26,1.3-103.2-7.45c-1.98-0.51-4-1.03-5.85-1.86c-5.92-2.66-8.37-0.53-9.05,5.63c-1.86,16.81-3.8,33.62-6.16,50.36
		c-1.86,13.19-3.91,26.38-6.8,39.37c-2.03,9.15-6.49,17.03-15.84,21.44c-9.31,4.39-10.61,12.53-3.67,20.24
		c4.9,5.44,11.51,8.43,17.96,11.6c22.52,11.07,44.96,22.32,67.53,33.29c20.76,10.09,40.96,21.22,60.31,33.75
		c21.9,14.19,40.28,31.38,47.42,58.1c12.5,46.8-7.83,94.71-50.5,117.72c-18.88,10.18-38.72,15.06-60.4,14.9
		c-108.21-0.83-216.43-1.32-324.65-1.39c-47.71-0.03-92.24-11.33-133.98-34.16c-3.15-1.72-6.48-3.16-9.45-5.13
		c-11.27-7.46-22.43-10.97-35.31-2.91c-5.53,3.46-12.62,3.72-19.34,4.21c-38.95,2.85-77.92,1.54-116.88,0.77
		c-7.83-0.16-15.52-1.61-22.07-5.73c-5.97-3.75-10.98-3.06-17.04-0.54c-21.25,8.87-41.77,19.37-63.55,27.09
		c-32.23,11.42-65.01,16.75-99.37,16.63c-111.8-0.4-223.61,0.52-335.42,0.83c-33.38,0.09-61.84-11.56-85.58-35.43
		c-25.99-26.12-40.6-95.77-6.27-136.75c10.37-12.38,23.79-21.06,37.38-29.25c33.44-20.16,69.45-35.07,105.18-50.51
		c9.4-4.06,18.74-8.26,28.08-12.48c2.33-1.05,4.62-2.25,6.77-3.64c11.9-7.68,13.69-15.68,2.6-23.63
		c-9.23-6.61-11.64-14.86-13.5-24.46c-5.83-30.15-9.22-60.63-11.8-91.68c-9.93,1.06-18.2,5.12-26.88,7.65
		c-36.04,10.53-71.91,8.09-107.85-0.59c-32.81-7.92-59.78-25.38-84.35-48.14c-36.76-34.06-62.63-74.24-74.47-123.08
		c-9.59-39.6-9.5-79.19,0.89-118.7c6.27-23.83,16.92-44.97,35.83-61.45c6.17-5.38,11.1-10.96,11.27-20.61
		c1.15-63.61,15.36-124.89,34.57-185.18c27.74-87.07,68.27-167.99,119.47-243.46c37-54.53,80.14-103.78,131.83-145.19
		c13.49-10.81,26.06-22.78,39.07-34.22c-3.86-6.16-9.65-6.99-14.7-8.58c-64.91-20.49-125.39-50.63-182.86-86.51
		c-59.64-37.24-116.25-78.79-167.43-127.33c-65.55-62.16-121.01-132.33-166.64-210.23c-20.48-34.96-37.88-71.57-55.02-108.24
		c-4.91-10.51-11.3-15.32-22.67-17.22c-48.14-8.05-89.33-30.23-121.58-66.68c-30.57-34.56-47.53-76.2-56.01-121.39
		c-7.13-37.99-6.18-75.63,6.03-112.43c15.36-46.3,39.68-86.53,81.32-114.23c12.84-8.54,27.11-14.43,40.92-21.14
		c11.82-5.74,11.98-5.64,9.48-17.88c-11.14-54.42-17.19-109.38-16.72-164.94c0.19-23.05,1.91-46.08,2.57-69.13
		c0.38-13.12,0.05-13.13-12.16-16.61c-15.49-4.42-26.53-19.83-28.22-39.99c-0.47-5.59-0.43-11.32,0.2-16.9
		c4.05-35.93-0.12-71.61-3.37-107.27c-1.59-17.45-7.06-34.04-15.56-49.54c-5.93-10.81-11.55-21.98-12.94-34.31
		c-1.11-9.87-6.18-13.87-15.18-15.79c-35.38-7.56-68.27-21.46-99.46-39.68c-30.86-18.03-57.12-41.37-81.15-67.64
		c-57.11-62.44-88.2-137.19-105.02-218.92c-17.79-86.45-18.3-172.88-2.3-259.74c16.19-87.92,48.21-169.5,97.04-244.05
		c37.53-57.29,83.14-107.74,136.41-151.29c47.16-38.56,97.89-70.76,154.13-94.33c47-19.7,95.36-34.61,145.9-41.35
		c11.69-1.56,17.04-6.92,20.65-16.98c10.21-28.47,21.12-56.68,33.55-84.27c20.74-46.05,47.63-88.34,78.77-128.02
		c20.58-26.22,41.87-51.85,65.61-75.28c70.21-69.31,151.83-121.31,242.68-159.25c67.94-28.38,138.15-48.4,211.22-58.21
		c34.15-4.59,68.52-4.76,102.85-5.92c113.25-3.85,222.33,16.32,328.07,56.46c81.8,31.05,154.99,76.32,222.95,131.01
		c34.93,28.11,65.8,60.24,96.58,92.48c15.88,16.63,29.82,35.15,44,53.32c6.92,8.87,15.08,12.04,25.5,9.08
		c16.74-4.75,33.3-10.15,50.05-14.86c6.22-1.75,8.33-5.16,7.27-11.22c-0.62-3.53-0.96-7.11-1.46-10.66
		c-5.13-36.44,6.38-67.81,29.83-95.16c21.66-25.27,48.3-44.19,78-58.96c67.81-33.72,138.75-41.13,212.52-25.7
		c87.76,18.35,162.39,60.14,226.15,123.12c53.15,52.5,86.22,115.49,102.71,187.44c8.53,37.2,10.48,75.09,1.95,112.91
		c-5.55,24.63-15.85,46.43-36.31,62.82c16.63,21.08,33.3,41.79,49.51,62.86c68.68,89.3,114.15,189.03,134.86,299.97
		c6.88,36.86,11.68,73.97,13.76,111.32c2.12,38.03-2.72,75.74-9.08,113.21c-10.66,62.79-31.96,121.74-64.1,176.76
		c-33.72,57.72-79.83,102.31-139.96,132.03c-12.48,6.17-25.76,9.92-39.26,13.08c-11.36,2.66-22.42,6.23-33.9,10.97
		c4.01,9.24,9.36,16.61,15.43,23.55c4.05,4.63,8.47,9.02,11.9,14.09c5.86,8.66,8.42,17.63,6.24,28.87
		c-4.89,25.2-10.73,49.96-19.45,74.2c-7.71,21.42-6.24,44.54-9.23,66.86c-0.75,5.58-0.24,11.38-1.39,16.85
		c-3.41,16.25-0.74,29.93,8.52,44.84c14.08,22.67,12.72,47.86,0.53,71.97c-2.85,5.65-6.9,10.13-12.3,13.4
		c1.14-2.9,2.29-5.8,3.43-8.7C3640.56,2117.94,3634.51,2119.46,3640.5,2124.48z M3566.8,1738.68c1.13-0.98,2.97-1.79,3.27-2.98
		c5.95-23.57,9.05-47.64,12.02-71.74c-8.54,24.3-11.99,49.62-14.99,75.13c-3.04,8.29-5.89,16.62-6.17,27.87
		C3568.61,1753.38,3568.63,1753.29,3566.8,1738.68z M3535.89,2446.38c1.5-1.33,3.31-2.29,3.79-4.58
		c6.02-28.54,10.54-57.38,13.07-86.38c5.49-62.84,3.67-125.77,0.08-188.65c-0.21-3.76,1.05-8.1-3.37-12.79
		c0,15.48-0.25,29.47,0.04,43.44c1.71,83.41-0.5,166.6-13.3,249.34c-1.16,4.15-2.17,8.31-0.27,12.43
		C3537.63,2454.88,3537.95,2450.59,3535.89,2446.38z M2996.35,4432.72c4.71-3.59,3.94-9.25,4.57-13.98
		c3.62-27.35,6.9-54.75,9.93-82.18c1.57-14.23,2.08-28.57,3.63-42.8c0.78-7.19-1.82-9.23-8.51-8.11
		c-17.64,2.95-35.33,5.62-52.95,8.65c-11.97,2.06-11.97,2.24-13,14.55c-3.16,37.7-6.32,75.38-11.58,112.88
		c-1.18,8.38-6.98,19.29-1.31,24.93c6.51,6.46,17.31-0.44,26.07-1.84c14.97-2.39,30.59-3.34,43.7-12.51L2996.35,4432.72z
		 M2161.21,1877.19c0.95-0.37,1.88-1.03,2.84-1.08c55.3-2.8,110.58-5.75,165.97-6.98c120.01-2.66,240.01,0.33,360,0.07
		c59.16-0.13,117.8,4.6,176.05,13.86c62.15,9.87,124.25,20.39,184.78,38.29c2.45,0.73,5.69,2.52,7.94-1.49
		c-3.67-4.98-9.54-5.71-14.62-7.71c-26.34-10.39-54.25-14.85-81.61-21.43c-117.48-28.29-236.64-43.99-357.37-47.61
		c-70.25-2.11-140.56-1.99-210.69,2.54c-69.57,4.5-138.58,14.67-207.57,24.5c-8.51,1.21-18.67-0.74-25.69,7.02
		c-4.22-0.23-8.42-1.97-13.75-0.03C2152.76,1879.41,2157.01,1876.32,2161.21,1877.19z M1631.22,2695.45
		c-5.95-5.76-6.69-10.8-8.14-15.5c-7.11-23.01-14.07-46.05-23.68-68.2c-6.35-14.62-13.17-29.04-23.15-41.51
		c-14.51-18.14-33.78-27.82-56.8-23c-32.16,6.74-53.81,26.64-62.18,59.05c-6.93,26.85-0.96,51.77,13.31,75.07
		c17.51,28.58,43.18,45.67,75.05,54.84c17.86,5.14,20.14,8.2,14.81,25.1c-5.83,18.51-2.17,35.35,3.91,52.4
		c13.45,37.72,29.33,74.48,49.21,109.19c48.77,85.15,109.59,160.65,182.85,226.23c81.78,73.21,173.7,130.03,274.29,173.3
		c40.52,17.43,82.65,30.23,124.29,44.54c53.19,18.27,107.62,29.21,163.23,35.51c24.44,2.77,48.9,5.29,73.34,8.07
		c3.35,0.38,8.66-0.54,9.14,3.72c1.02,8.95,7.92,8.38,13.52,9.45c6.51,1.25,13.23,1.93,19.86,2c45.63,0.49,91.29,1.83,136.86-1.84
		c4.13-0.33,10.4,2.31,11.79-3.9c1.87-8.41,8.01-8.16,14.08-8.77c21.42-2.15,42.94-3.61,64.26-6.49
		c84.99-11.47,168.13-31.01,249.3-58.71c93.23-31.81,180.36-75.79,260-133.84c51.5-37.54,97.79-80.61,139.3-129.49
		c43.35-51.04,82.91-104.27,114.51-163.25c23.54-43.93,43.81-89.17,53.25-138.66c2.94-15.41-1.46-25.88-14.6-33.62
		c-3.54-2.09-9.38-2.51-8.63-9.39c39.72-1.63,72.02-17.44,95.82-49.81c25.2-34.29,27.12-79.05,4.18-112.34
		c-29.45-42.77-92.81-36.89-113.15,3.38c-6,11.88-12.42,23.57-18.11,35.6c-10.53,22.25-19.19,45.28-28.13,68.2
		c-1.88,4.82-2.93,10.73-9.29,14.13c-2.92-6.55-3.32-12.6-3.96-18.54c-8.13-75.93-16.59-151.81-28.85-227.21
		c-14.78-90.91-38.67-179.1-76.34-263.47c-30.36-68.01-69.9-129.85-119.37-185.4c-10.97-12.32-22.92-24.02-39.52-28.16
		c-50.63-12.61-100.37-13.11-147.87,12.57c-59.06,31.92-119.11,61.74-181.3,87.21c-56.45,23.11-113.65,43.97-172.49,60.1
		c-79.71,21.85-160.79,36.19-243.09,44.07c-59.74,5.72-119.55,10.25-179.54,11.1c-114.91,1.63-229.72-1.13-344.16-12.46
		c-43.83-4.34-87.78-8.85-130.34-21.06c-8.16-2.34-11.69-0.86-14.61,6.84c-15.81,41.68-32.4,83.1-43.97,126.22
		c-15.41,57.42-29,115.3-39.35,173.86c-9.55,53.99-18.92,108.01-23.04,162.79C1636.02,2647.78,1633.59,2670.13,1631.22,2695.45z
		 M1916.6,1159.94c0.8,1.15,1.4,2.67,2.51,3.54c41.6,32.68,87.21,57.72,139.16,69.16c54.85,12.08,110.22,10.6,164.99-0.23
		c125.97-24.9,228.6-88.68,305.55-191.32c63.6-84.83,104.97-180.38,127.32-284.09c2.03-9.43,1.67-19.37,6.89-30.53
		c11.42,146.24-28.44,272.8-127.9,378.61c2.4,4.82,6.17,6.76,9.23,9.42c17.03,14.84,35.78,27.45,53.62,41.24
		c47.48,36.72,99.93,64.1,156.89,82.68c64.89,21.17,129.69,23.2,194.01-2.83c64.05-25.91,106.81-71.71,125.25-138.26
		c12.86-46.4,10.09-93.51-1.82-139.95c-15.7-61.25-43.6-117-78.25-169.49c-44.96-68.09-102.14-125.42-160.6-181.67
		c-42.82-41.2-90.65-75.47-142.84-103.27c-128.8-68.61-265.78-96.81-411.35-79.66c-81.71,9.62-159.03,32.96-232.11,71.32
		c-69.97,36.72-130.67,84.81-181.82,144.59c-39.87,46.6-72.34,98.15-93.91,156c-6.62,17.76-12.81,35.69-19.46,53.44
		c-9.18,24.48-18.18,49.07-35.01,69.75c-7.44,9.15-14.65,18.48-21.78,27.88c-13.32,17.57-26.44,35.31-37.86,54.18
		c-18.51,30.59-28.42,64.01-26.26,99.63c3.51,58.03,37.62,94.11,88.36,117.43c31.35,14.41,62.39,13.31,93.64,0.33
		c22.05-9.16,41.06-22.95,58.83-38.62c30.34-26.73,54.27-58.57,74.46-93.4c2.3-3.97,3.83-8.72,8.65-12.12
		C1952.49,1105.82,1944.94,1122.59,1916.6,1159.94z M2543.22,4275.67c97.63,0.78,189.76-3.37,281.72-12.32
		c50.05-4.87,99.79-11.13,148.52-23.89c18.32-4.8,36.71-9.38,54.01-17.43c10.75-5,16.27-11.97,15.73-24.98
		c-1.33-31.76-2.36-63.5-4.52-95.24c-5.32-78.01-17.83-155.01-37.87-230.27c-20.52-77.05-34.85-154.9-43.97-233.88
		c-1.2-10.39-5.57-16.47-13.72-22.17c-23.1-16.15-45.6-33.15-68.43-49.68c-18.26-13.22-36.7-26.19-54.97-39.39
		c-5.39-3.89-10.53-4.89-17.18-2.59c-11.1,3.85-22.63,6.46-33.95,9.67c-68.11,19.34-133.51,46.12-198.83,73
		c-12.93,5.32-23.84,5.41-36.63,0.29c-39.91-16-80.04-31.53-120.45-46.22c-35.59-12.94-71.74-24.34-107.51-36.81
		c-8.92-3.11-16.34-3.02-24.38,2.79c-15.78,11.38-32.14,21.97-48.37,32.71c-29.06,19.23-57.94,38.74-87.43,57.29
		c-11.79,7.41-18.85,16.12-19.37,30.47c-0.49,13.81-2.44,27.56-3.76,41.34c-4.86,50.53-10.86,100.87-23.14,150.28
		c-20.68,83.2-35.55,167.42-42.44,252.93c-3.04,37.81-5.04,75.7-7.81,113.53c-0.5,6.85,2.62,10.3,8.08,13.21
		c17.77,9.48,36.79,15.52,56.19,20.36c61.85,15.43,124.97,22.74,188.32,27.88C2383.38,4273.21,2465.83,4277.31,2543.22,4275.67z
		 M3496.25,2074.55c1.57-9.49,3.44-18,4.32-26.61c8.06-79.03,20.47-157.47,31.77-236.06c1.94-13.47,0.86-14.03-10.64-19.69
		c-24.81-12.21-49.63-24.41-74.5-36.49c-86.73-42.13-175.81-78.37-267.58-108.07c-84.4-27.31-170.06-49.23-257.33-65.38
		c-63.61-11.77-127.75-18.22-192.03-24.41c-76.69-7.38-153.46-10.06-230.43-8.54c-62.56,1.24-124.9,6.13-187.21,11.57
		c-53.12,4.64-105.99,10.97-158.36,21.09c-84.05,16.24-166.88,37.16-248.12,64.3c-89.04,29.75-175.2,66.37-259.5,107.55
		c-50.68,24.76-98.5,54.7-148.21,81.2c-7.32,3.9-9.38,8.49-7.39,15.98c3.43,12.87,6.43,25.87,10.09,38.68
		c15.04,52.72,30.04,105.44,40.42,159.35c2.22,11.51,5.24,22.87,7.87,34.19c1.91-0.18,3.06,0.03,3.82-0.42
		c3.97-2.33,7.9-4.73,11.74-7.28c61.59-40.89,126.04-76.66,193.02-107.92c110.96-51.77,227.12-88.09,345.98-116.23
		c74.88-17.73,150.7-29.99,227.4-36.63c38.8-3.36,77.51-8.17,116.47-9.23c68.18-1.85,136.3-2.59,204.51,1.8
		c56.84,3.65,113.46,8.85,169.72,17.18c79.12,11.71,157.02,29.38,233.64,52.51c148.92,44.96,289.59,108.21,422.14,189.61
		C3482.97,2069.74,3487.76,2073.87,3496.25,2074.55z M1891.99,1179.17c-2.62,3.43-3.14,6.98-3.71,10.48
		c-3.37,20.73-6.51,41.5-10.11,62.2c-6.99,40.19-20.01,78.44-39.15,114.42c-19.61,36.87-48.2,66.13-81.1,91.27
		c-49.48,37.81-105.53,60.29-166.79,70.16c-13.64,2.2-27.38,3.96-41.13,5.29c-6.6,0.64-8.88,3.82-9.02,9.85
		c-0.21,9.23-0.73,18.45-0.93,27.68c-1.17,54.17-19.9,102.1-51.59,145.44c-17.09,12.3-15.48,27.9-8.11,44.7
		c1.84,4.2,2.66,8.85,4.41,13.1c4.67,11.31,5.92,11.79,16.64,5.01c28.18-17.8,57.28-34.02,86.7-49.6
		c113.04-59.85,230.8-108.13,353.27-145.19c94.31-28.54,189.94-50.91,287.54-64.34c75.72-10.42,151.94-16.93,228.29-18.19
		c84.52-1.4,169.15-3.79,253.63,4.58c49.99,4.95,99.97,10.05,149.7,16.95c70.03,9.72,139.31,23.85,207.89,41.01
		c105.01,26.28,207.36,60.67,306.6,104.02c41.79,18.25,83.21,37.33,122.06,61.48c2.82,1.75,5.1,5.3,9.66,3.49
		c3.65-11.04,3.94-22.66,5.08-34.18c2.31-23.46,4.76-46.91,7.54-70.32c1.03-8.66-1.52-14.26-9.47-18.61
		c-16.79-9.18-30.26-22.66-43.99-35.81c-31.34-30.02-59.84-62.04-75.43-103.47c-2.46-6.53-6.63-7.91-13.18-7.03
		c-48.86,6.55-97.11,1.95-145.01-8.48c-84.93-18.51-160.91-56.75-232.39-105.04c-22.97-15.52-44.23-33.28-66.37-49.88
		c-10.08-7.56-20.43-11.9-33.5-13.03c-52.68-4.55-104.42-14.16-154.75-31.14c-57.5-19.4-108.39-50.72-157.73-85.04
		c-19.35-13.46-38.64-27.03-57.6-41.03c-6.4-4.73-11.34-6.09-16.56,1c-1.5,2.04-3.59,3.66-5.47,5.4
		c-51.85,48.13-110.64,84.44-178.78,104.7c-40.9,12.16-82.75,19.3-125.21,23.09c-55.06,4.91-109.54,2.58-163-12.95
		c-39.22-11.39-74.89-30.33-109.68-51.2C1918.63,1192.36,1906.36,1184.09,1891.99,1179.17z M3416.66,1461.49
		c0.4,2.3,0.37,3.93,0.98,5.26c1.71,3.72,3.55,7.39,5.59,10.94c30.12,52.41,73.91,89.6,128.13,115.3
		c33.63,15.94,65.24,10.39,94.24-10.28c27.45-19.57,49.09-44.79,64.44-75.16c34.94-69.12,42.8-142.55,35.26-218.49
		c-6.57-66.12-27.38-127.79-56.94-187.04c-44.9-90.02-107.14-166.02-184.92-229.12c-43.07-34.94-90.22-64.09-141.46-85.92
		c-62.7-26.71-127.56-44.42-196.32-44.72c-23.61-0.1-47.18,1.29-70.52,4.58c-19.06,2.69-38.26,5.56-55.79,13.31
		c-0.79,2.94,0.56,4.55,1.67,6.26c29.36,45.33,53.7,93.19,71.44,144.24c21.23,61.1,29.81,123.4,15.32,187.44
		c-8.13,35.94-22.06,69.49-45.88,97.91c-31.32,37.37-70.49,63.67-116.95,78.9c-5.66,1.86-11.78,2.8-16.26,6.44
		c0.27,3.87,2.6,5.19,4.36,6.95c13.9,13.85,30.84,23.67,46.52,35.16c69.87,51.23,146.63,87.33,231.5,105.77
		c65.62,14.26,129.34,8.33,191.11-17.9c68.66-29.16,126.66-72.97,176.08-128.54c7.92-8.9,15.47-18.25,27.24-27.36
		C3589.65,1361.28,3513.24,1421.85,3416.66,1461.49z M1298.35,1334.32c5.4,2.37,6.59,7.13,8.88,10.88
		c24.48,40.06,53.23,76.65,88.96,107.28c27.2,23.32,57.57,41.91,93.44,47.42c66.84,10.28,131.89,3.29,193.58-25.97
		c47.92-22.73,90.4-52.78,121.39-96.58c32.4-45.78,49.83-97.27,54.49-153.11c0.2-2.45,0.6-5.2-2.68-6.51
		c-5.04,1.31-8.53,5.26-12.79,7.94c-27.16,17.08-56.21,28.04-88.77,23.14c-69.32-10.42-116.9-49.26-142.82-113.9
		c-9.23-23.01-11.26-48-9.78-72.7c2.68-44.64,16.4-85.27,47.25-118.91c2.03-2.22,4.42-4.47,3-8.1c-5.11-1.28-10.13-0.15-15.19,0.65
		c-47.48,7.51-92.27,23.41-135.15,44.59c-69.12,34.15-131.6,77.09-180.16,138.28c-85.17,107.3-121.66,228.54-104.9,364.95
		c9.64,78.41,40.07,146.96,99.4,200.81c21.62,19.63,44.45,37.9,70.09,52.2c10.67,5.95,21.72,5.52,32.4,0.05
		c11.9-6.09,22.75-13.81,32.61-22.88c50.13-46.13,68.93-105.06,70.27-171.26c0.16-7.91-2.96-10.67-10.48-11.58
		c-15.25-1.86-30.35-4.94-44.91-9.99c-76.52-26.52-126.07-81.58-160.23-152.51C1301.28,1358.18,1297.24,1346.98,1298.35,1334.32z
		 M1370.71,1813.77c-3.85-12.35-7.7-23.87-10.99-35.56c-1.68-5.96-5.03-9.53-10.68-11.97c-34.91-15.08-63.38-38.75-90.33-65.26
		c-33.03-32.48-56.12-71.21-70.91-113.93c-32.71-94.54-40.3-190.89-13.93-288.84c26.43-98.18,73.51-183.74,146.79-255.2
		c41.89-40.85,87.09-76.2,139.43-102.31c48.26-24.07,97.51-45.67,151.24-54.22c21.22-3.37,42.77-4.83,64.22-6.4
		c7.88-0.58,11.8-3.72,14.15-11.03c6.26-19.51,13.26-38.78,19.64-58.25c19.78-60.41,48.71-116.27,85.64-167.78
		c36.65-51.12,80.46-95.55,130.36-134.03c115.2-88.82,245.92-135.35,390.63-143.28c60.13-3.3,119.91,1.5,179.07,12.59
		c52.95,9.93,104.86,23.64,154.45,45.22c123.35,53.7,224.69,135.95,309.87,239.05c11.09,13.42,23.94,25.28,33.68,39.93
		c9.92,14.92,10.55,15.02,27.54,10.2c61.15-17.34,122.72-25.79,186.75-19.12c66.64,6.94,129.7,24.75,190,52.76
		c110.35,51.26,198.37,130.28,272.06,225.52c65.2,84.27,110.69,177.93,128.06,284.36c15.23,93.34,5.15,182.83-35.44,268.43
		c-12.8,26.99-29.1,51.71-51.28,72.34c-17.08,15.88-36.33,28.24-56.79,39.05c-4.39,2.32-10.17,3.58-11.34,9.46
		c-3.06,15.37-6.33,30.77-4,46.97c34.43-5.49,62.33-22.39,87.67-43.54c49.83-41.58,83.21-94.7,102.07-156.2
		c24.51-79.92,32.11-161.2,17.01-244.5c-11.51-63.51-28.99-124.73-57.51-182.55c-33.51-67.92-74.83-130.44-127.42-185.55
		c-26.97-28.26-54.8-55.56-84.84-80.23c-39.98-32.84-82.31-62.63-128.25-87.06c-39.92-21.23-80.54-40.38-124.51-51.74
		c-30.35-7.84-61.31-12.06-92.33-15.73c-40.38-4.77-80.85-4.68-121.16,1.28c-25.83,3.83-51.61,7.98-77.36,12.35
		c-6.6,1.12-11.71,0.57-16.46-4.86c-9.78-11.17-20.28-21.67-30.03-32.93c-21.46-24.79-42.37-50.09-65.53-73.4
		c-15.93-16.04-33.15-30.51-50.24-45.25c-25.65-22.12-52.27-42.8-80.32-61.77c-118.12-79.87-249.27-119.96-390.83-128.15
		c-76.27-4.41-151.97,2.53-225.91,20.31c-131.09,31.52-246.73,91.96-342.31,189.23c-63.5,64.62-112.47,138.05-145.14,222.3
		c-10.17,26.24-18.24,53.31-26.81,80.15c-2.33,7.29-5.69,10.65-13.83,11.25c-19.4,1.44-38.85,3.34-58.04,6.51
		c-115.57,19.09-213.24,73.32-296.55,154.15c-45.57,44.22-81.27,96.14-111.5,151.94c-34.4,63.5-55.01,131.23-62.73,202.84
		c-6.19,57.39-4.07,114.55,5.39,171.62c12.97,78.24,42.51,148.46,96.62,207.31c29.12,31.68,62.81,57.37,102.66,74.12
		C1335.96,1810.9,1352.26,1815.53,1370.71,1813.77z M2918.18,4300.45c-34.96,6.99-68.59,10.08-102.16,13.91
		c-59.12,6.74-118.49,10.44-177.84,13.13c-81.46,3.69-163.01,2.47-244.44-2.75c-57.79-3.71-115.53-7.86-172.76-17.26
		c-16.67-2.74-33.41-5.17-50.18-7.18c-10.28-1.23-10.27-0.43-10.87,9.3c-0.71,11.48,0.85,22.78,1.88,34.1
		c2.97,32.65,5.28,65.37,11.46,97.69c1.7,8.89,4.3,14.37,14.02,14.39c2.01,0,4,0.87,6.02,1.22c70.39,12.03,141.51,17.65,212.71,18.5
		c126.09,1.51,252.28,4.44,378.21-5.67c34.71-2.79,69.51-5.18,103.81-11.62c16.4-3.07,16.46-3.31,18.32-20.34
		c3.94-36.17,8.97-72.23,10.43-108.65C2917.16,4320.11,2919.56,4311.08,2918.18,4300.45z M3541.19,638.51
		c4.21,2.49,4.23,6.16,4.67,9.59c2.02,15.96-4.51,29.32-14.21,40.9c-5.6,6.68-4.13,10.14,1.84,14.55
		c11.95,8.82,23.62,18.02,35.52,26.91c7.79,5.82,15.16,12.66,23.79,16.84c25.98,12.59,37.03,11.44,56.3-4.73
		c2.04-1.71,3.45-5.42,7.33-3.48c0.5,16.66-3.43,23.14-17.27,28.4c-7.33,2.79-15.31,4.19-23.66,10.17
		c11.63,7.73,21.92,14.2,31.8,21.24c7.1,5.06,13.17,3.62,19.66-0.98c7.87-5.59,12.14-13.69,16.39-21.9
		c14.55-28.12,12.58-57.63,6.55-87.14c-17.12-83.75-64.06-147.98-133.59-195.35c-62.02-42.25-130.81-65.31-207-60.88
		c-24.08,1.4-47.94,4.84-70.04,15.49c-5.5,2.65-11.31,5.19-14.6,10.83c-18.65,32.02-22.46,68.61,2.04,100.81
		c1.83,2.41,3.38,5.04,6,8.98c-33.56-12.56-43.74-43.41-39.26-70.68c1.16-7.07,2.8-14.06,4.17-21.1c0.74-3.82,2.91-7.67-0.15-11.62
		c-9.81,1.55-17,7.33-22.58,14.81c-16.09,21.55-22.4,45.39-10.92,70.7c11.34,25.02,29.32,43.35,58.83,45.41
		c40.64,2.83,80.15,10.16,117.74,26.62c20.04,8.77,29.78,4.09,38.09-16.39c2-4.92,2.18-9.96,2.6-15.04
		c0.43-5.12,0.74-10.28,6.53-12.93c7.86,21.05,11.65,41.62-4.61,60.78c2.22,1.95,3.52,3.65,5.24,4.52
		c21.43,10.94,42.99,21.62,64.35,32.69c7.79,4.04,14.58,3.22,21.48-1.75c6.34-4.56,11.74-9.9,15.67-16.67
		C3533.65,651.61,3537.4,645.08,3541.19,638.51z M3536.71,2939.29c-11.95,19.48-23.14,37.71-34.33,55.94
		c-2.57,4.19-2.09,8.91-2.21,13.48c-1.49,59.48-1.17,118.96-0.12,178.44c0.12,6.64,1.19,13.26,1.65,19.9
		c1.04,14.84,8.63,25.6,19.87,34.89c13.14,10.85,27.89,19.06,42.25,27.97c26.43,16.4,49.07,36.42,66.3,62.93
		c31.17,47.95,42.82,101.76,48.13,157.17c3.81,39.77,4.17,79.86,4.12,119.88c-0.06,47.18,0.41,94.35,2.32,141.51
		c0.25,6.19,1.07,12.16,2.77,18.1c0.76,2.65,1.6,4.36,4.57,5.17c16.08,4.39,22.98-0.45,23.16-16.52c0.02-2.05,0.03-4.1,0.02-6.15
		c-0.4-78.46-1.54-156.93,1.02-235.36c1.51-46.24,7.52-91.88,20.2-136.55c12.66-44.59,37.33-80.26,75.56-106.95
		c17.66-12.33,37.09-21.78,53.98-35.34c12.15-9.75,18.45-21.65,19.1-36.83c0.48-11.27,0.73-22.55,0.84-33.83
		c1.38-147.68,1.29-295.37,0.54-443.06c-0.02-3.34,1.62-7.19-2.07-9.88c-3.02,0.32-6.04,0.71-9.07,0.95
		c-11.91,0.91-11.81,0.9-12.6,12.11c-1.22,17.41-1.27,34.83-0.95,52.27c1.15,63.04,2.41,126.09,3.38,189.13
		c1.15,74.87,1.72,149.74,0.2,224.6c-0.48,23.67-0.8,23.85-24.53,23.9c-102.05,0.19-204.1,0.26-306.16,0.37
		c-2.05,0-4.1-0.06-6.15-0.08c-5.02-0.06-9.03-1.11-9.63-7.33c-0.56-5.87,2.16-8.85,7.55-9.28c9.81-0.79,11.91-6.3,11.93-15.35
		c0.23-77.94,0.9-155.88,1.36-233.82C3539.72,2948.23,3540.62,2944.54,3536.71,2939.29z M3689.21,4596.88
		c1.13-0.03,2.27-0.06,3.4-0.08c4.3-23,8.34-46.05,12.96-68.99c20.61-102.17,32.5-205.38,38.27-309.41
		c2.87-51.73,3.75-103.5,4.73-155.25c1.48-78.42,1.27-156.87,1.65-235.31c0.06-11.64-0.26-12.09-12.14-12.21
		c-29.73-0.28-59.47-0.02-89.21-0.2c-7.08-0.04-10.1,2.29-9.72,9.9c0.95,18.94,1.44,37.91,1.67,56.87
		c1.72,138.37-1.82,276.83,10,415c5.51,64.35,10.6,128.66,21.13,192.46C3677.85,4525.38,3686.51,4560.62,3689.21,4596.88z
		 M1881.35,3834.58c22.61,8.37,22.62,8.37,31.22-11.27c1.23-2.81,2.44-5.64,3.54-8.51c21.22-54.97,52.64-104.05,87.63-150.99
		c9.77-13.11,20.98-25.15,31.78-37.46c3.34-3.8,7.1-7.5,12.39-8.68c5.69-1.27,8.97,2.09,7.45,7.78c-1.49,5.6-5.36,9.79-8.77,14.29
		c-21.33,28.17-42.95,56.14-61.86,86.07c-20.84,32.99-40.03,66.76-52.03,104.13c-4.47,13.92-3.73,16.08,10.19,19.6
		c32.27,8.15,63.76,18.86,95.61,28.42c7.62,2.29,11.05,0.65,13.71-6.78c6.23-17.34,12.95-34.53,20-51.56
		c7.87-19,14.69-38.28,17.6-58.69c5.85-41.1,10.01-82.4,12.5-123.82c0.79-13.17,5.59-21.68,16.19-29.02
		c44.64-30.88,89.29-61.73,135.46-90.31c2.79-1.73,7.08-2.29,7.1-7.36c-14.19-3.98-28.43-8.08-42.73-11.96
		c-27.14-7.36-54.11-15.37-81.96-19.91c-9.3-1.52-16.51-0.01-23.52,7.03c-39.01,39.2-78.69,77.67-111.88,122.3
		C1949.51,3677.09,1909.55,3752.17,1881.35,3834.58z M1932.44,4197.12c5.95-0.47,10.31,2.42,14.92,4.4
		c13.86,5.93,28.53,7.87,43.4,8.77c7.53,0.45,11.61-2.75,11.32-10.71c-0.15-4.09,0.17-8.2,0.06-12.29
		c-0.9-33.84,1.2-67.58,3.19-101.33c0.67-11.3,0.86-11.39-10.59-13.17c-29.83-4.62-59.64-9.31-89.28-15.12
		c-24.06-4.72-47.27-12.48-72.31-19.91c-0.32,6.97-1.24,12.99-0.7,18.87c0.84,9.13-2.58,15.56-9.73,20.89
		c-10.06,7.5-17.48,17.45-22.37,28.85c-9.82,22.89-15.51,46.81-12.09,71.84c7.37,54.06,31.89,97.36,79.01,127.24
		c28.11,17.82,57.5,26.15,90.49,19.88c22.12-4.2,42.53-12.46,57.85-29.36c19.85-21.9,16.26-38.36-3.02-53.52
		c-9.26-7.28-19.84-10.4-30.95-12.49c-14.74-2.77-28.45-8.21-41.52-15.41C1933.14,4210.71,1929.48,4205.4,1932.44,4197.12z
		 M2838.39,3507.9c1.85,6.76,6.47,8.58,9.97,11.18c38.65,28.72,77.27,57.49,116.3,85.69c9.06,6.55,14.08,14.47,15.39,25.15
		c2.12,17.29,4.38,34.57,6.15,51.9c4.49,43.93,12.13,87.25,24.52,129.69c2.45,8.39,5.29,16.64,10.09,23.99
		c6.74,10.32,13.11,20.85,17.31,32.47c2.58,7.13,6.2,9.21,13.88,6.67c20.41-6.74,40.84-13.47,61.83-18.31
		c11.96-2.76,23.88-5.71,35.82-8.56c4.77-1.14,7.53-3.27,4.55-8.56c-1.01-1.78-1.85-3.66-2.73-5.51
		c-32.91-69.61-69.79-136.9-115.51-199.09c-3.01-4.09-5.31-8.72-7.76-13.2c-0.96-1.75-1.71-3.98-0.16-5.68
		c2.02-2.2,4.82-1.65,7.14-0.61c2.29,1.03,4.51,2.49,6.34,4.21c8.98,8.41,17.91,16.84,25.44,26.67
		c24.99,32.65,45.7,68.03,65.98,103.64c15.49,27.2,27.08,56.28,39.23,85.06c2.98,7.06,8.31,7.71,19.44,3.93
		c7.28-2.47,3.98-7.27,2.6-11.21c-6.09-17.4-11.76-35-18.9-51.97c-28.16-66.96-64.47-128.9-111.05-185.07
		c-30.54-36.83-63.99-70.62-97.87-104.14c-6.06-5.99-12.72-9.38-22.05-7.25C2908.91,3487.12,2873.93,3496.78,2838.39,3507.9z
		 M3155.99,4206.67c-9.99,13.26-22.58,19.4-36.58,22.85c-8.92,2.2-18.2,2.9-27.21,4.79c-17.75,3.72-31.42,13.21-36.86,30.99
		c-4.06,13.29,6.39,32.17,23.24,41.74c46.18,26.24,93.2,30.7,139.5,0.75c46.04-29.77,70.71-73.46,76.05-127.4
		c4.01-40.5-5.17-77.59-37.1-105.98c-8.7-7.74-11.48-17.44-10.67-30.82c-53.71,16.57-108.08,21.76-162.02,29.13
		c1.04,6.86,2.03,11.85,2.53,16.9c3.04,30.63,4.72,61.32,4.75,92.11c0,6.14,0.14,12.34,1.01,18.4c1.46,10.11,2.81,11.18,12.79,11.16
		c10.29-0.03,20.38-1.97,30.36-4.31C3141.77,4205.58,3147.69,4203.73,3155.99,4206.67z M1560.53,2521.15
		c0.73-3.51-0.93-5.51-2.51-7.43c-18.25-22.35-42.66-32.43-70.59-30.52c-41.36,2.84-72.71,23.67-92.39,60.22
		c-30.77,57.16-25.68,113.98,6.86,168.14c21.01,34.97,51.55,59.51,93.12,67.38c22.46,4.25,31.02-0.6,39.71-22.33
		c-5.74-4.49-12.77-6.38-19.29-9.24c-41.25-18.13-67.78-48.74-78.03-92.72c-14.58-62.51,18.25-115.32,80.7-130.59
		C1532.1,2520.64,1546.35,2520.06,1560.53,2521.15z M1845.02,3976.26c-0.72,13.34-0.39,14.1,13.4,19.82
		c47.33,19.65,97.38,27.25,147.82,33.12c5.77,0.67,8.49-1.46,9.06-7.31c0.9-9.17,2.11-18.32,3.45-27.44
		c3.12-21.27,6.01-42.6,9.82-63.75c1.42-7.91-1.17-11.64-8.25-13.53c-2.47-0.66-4.91-1.45-7.37-2.16
		c-47.19-13.74-95-24.87-143.16-34.61c-7.81-1.58-10.08,0.86-11.12,7.66C1854.07,3918.42,1849.3,3948.76,1845.02,3976.26z
		 M3544.21,2752.14c11.86,17.62,17.78,20.66,35.7,16.3c32.78-7.97,58.2-26.97,77.63-54.15c17.84-24.96,24.47-53.93,27.96-83.62
		c7.02-59.67-25.27-123.34-92.21-144.04c-24.17-7.48-46.31-4.24-68.31,6.59c-14,6.89-21.53,17.61-22.17,34.45
		c12.43-4.39,24.4-6.56,36.74-5.34c40.69,4.01,83.49,42.96,90.39,83.34c8.53,49.94-8.93,90.42-46.75,122.95
		C3571.56,2738.6,3558.41,2746.16,3544.21,2752.14z M3238.46,3981.93c-3.69-30.3-8.69-60.6-16.6-90.37
		c-1.35-5.08-4.05-5.51-9.06-4.95c-31.6,3.55-62.74,9.67-93.89,15.82c-18.11,3.58-35.89,8.36-53.62,13.43
		c-6.37,1.82-7.76,4.78-5.53,11.13c2.87,8.19,4.77,16.76,6.63,25.26c4.26,19.52,8.25,39.11,12.32,58.67
		c3.3,15.87,3.25,15.45,18.83,14.22c19.96-1.58,39.69-4.78,59.4-7.96c24.79-3.99,49.24-9.56,72.39-19.85
		C3236.29,3994.24,3240.56,3990.3,3238.46,3981.93z M3724.94,2735.8c-3.96,7.73-6.78,12.96-9.34,18.3
		c-3.33,6.95-6.02,15.01-12.04,19.45c-14.98,11.07-15.98,26.12-14.92,42.39c0.3,4.59-0.09,9.23,0.01,13.84
		c1.87,85.6,1.9,171.21,0.75,256.82c-0.46,34.35-0.94,68.7-1.19,103.05c-0.08,11.78,0.23,11.75,11.91,11.79
		c4.6,0.01,9.2,0.24,13.79,0.27c13.88,0.1,14.67-0.59,14.67-14.66c-0.02-142.53-0.07-285.06-0.18-427.59
		C3728.4,2752.56,3728.83,2745.48,3724.94,2735.8z M3785.31,2714.62c-11.71-0.38-12.07,6.96-12.19,14.44
		c-0.48,30.74-1.42,61.48-1.32,92.22c0.33,99.95,0.24,199.9-1.38,299.84c-0.08,5.04,0.85,10.28-2.97,15.05
		c0-141.03,0-282.06,0-424.34c-10.31,4.33-14.72,10.82-15.38,20.33c-3.09,44.46-5.06,89-4.27,133.54
		c1.27,71.24,1.66,142.45-0.16,213.69c-0.96,37.4-0.57,74.83-0.72,112.24c-0.01,3.36-1.23,7.7,3.3,9.1
		c4.01,1.25,8.21,0.56,11.52-2.34c2.51-2.19,2.59-5.49,2.83-8.53c0.64-8.1,1.11-16.22,1.65-24.33c2.38,9.67,2.43,19.33,2.36,28.99
		c-0.03,4.83,1.63,7.46,7.03,7.79c9.77,0.61,11.54-0.64,12.07-10.69c0.16-3.07,0-6.15,0-9.22c-0.06-90.21-0.19-180.43-0.16-270.64
		c0.02-57.91,2.24-115.81,0.14-173.72C3787.4,2730.39,3788.02,2722.65,3785.31,2714.62z M3670.91,2807.41
		c-12.09,7.55-23.6,15.99-36.57,21.78c-4.81,2.15-4.76,6.07-4.92,10.19c-0.73,18.93-2,37.86-2.12,56.8
		c-0.43,66.07-0.52,132.14-0.61,198.21c-0.04,31.24,0.15,62.49,0.38,93.73c0.03,3.96-1.58,9.18,2.28,11.52
		c7.43,4.49,15.95,2.81,23.85,1.2c7.01-1.43,4.8-8.06,5.08-12.81c0.35-6.11,0.09-12.25,0.09-18.38c1.69,7.48,1.59,14.96,1.75,22.44
		c0.07,3.14,0.79,6.37,5.01,6.13c4.04-0.23,4.56-3.38,4.72-6.57c0.08-1.53,0.03-3.07,0.03-4.61c0.07-122.4,0.9-244.79,2.97-367.18
		C3672.9,2816.07,3674.32,2811.86,3670.91,2807.41z M3605.13,2839.93c-4.3-1.38-7.56,2.46-11.59,2.6
		c-15.35,0.53-19.78,10.86-23.26,23.76c-7.65,28.43-11.3,57.17-11.2,86.59c0.26,76.89,0.11,153.79,0.12,230.68
		c0,15.21,0.01,15.2,15.79,16.13c2.54,0.15,5.09,0.24,7.61,0.61c22.94,3.4,22.82,3.41,23.02-19.53
		c1.01-110.72-1.26-221.45,1.41-332.16C3607.11,2845.69,3607.97,2842.44,3605.13,2839.93z M2661.79,3517.27
		c-4.3-14.77-8.49-28.95-12.52-43.17c-1.2-4.23-3.34-5.82-7.83-4.62c-21.16,5.67-42.87,3.29-64.3,3.54
		c-43.53,0.52-87.12,1.61-130.54-2.95c-5.6-0.59-8.81,0.72-10.09,6.34c-2.27,9.99-4.3,20.06-7.2,29.87c-2.2,7.44-0.07,11,7.14,13.8
		c24.33,9.46,48.36,19.71,72.62,29.35c11.39,4.53,22.89,10.97,34.66,11.77c12.46,0.85,24.08-7.59,36.13-11.77
		C2607.35,3539.9,2634.47,3529.32,2661.79,3517.27z M3551.39,1808.92c-1.69,8.54-3.23,14.97-4.21,21.49
		c-11.29,75.37-23.28,150.67-30.49,226.58c-0.88,9.3-7.84,19.62-1.16,27.95c6.28,7.83,16.84,11.22,25.76,16.2
		c9.94,5.55,19.21,5.19,29.6-2.45c-7.67-1.51-14.03,7.21-22.25-0.49c12.14-0.89,16.79-8.84,21.48-16.72
		c1.57-2.64,2.38-6.21,4.64-7.87c11.11-8.22,9.66-18.72,7.33-30.32c-4.83-24.05-8.42-48.01-5.93-73.04
		c3.99-39.94,11.81-78.88,24.19-116.92c2.32-7.13,0.94-11.54-4.34-16.03C3582.7,1825.95,3567.89,1817.15,3551.39,1808.92z
		 M1470.72,1850.73c-14.84,7.48-24.83,19.31-35.83,29.73c-9.22,8.73-9.31,9.36-2.55,20.51c16.26,26.82,25.34,55.79,27.61,87
		c1.97,27.07,4.59,54.11,5.93,81.22c1.05,21.32,8.93,39.55,21.11,56.53c3.48,4.85,6.85,5.56,11.29,2.12
		c10.92-8.46,22.4-16.2,31.93-26.39c3.17-3.4,3.94-6.32,2.88-10.91c-6.55-28.42-12.58-56.96-19.02-85.4
		C1502.44,1953.67,1486.33,1903.45,1470.72,1850.73z M2903.9,3434.77c-19.12-6.07-35.38-14.75-52.29-21.9
		c-16.97-7.17-34.4-9.43-52.59-6.62c-12.14,1.87-24.38,3.17-36.47,5.3c-27.69,4.9-55.32,10.2-82.99,15.22
		c-7.49,1.36-10.06,4.83-8.58,12.81c2.92,15.68,7.05,30.99,12.86,45.73c9.5,24.08,3.65,21.98,28.05,13.73
		c55.7-18.85,110.74-39.65,167.73-54.56C2887.28,3442.48,2895.66,3441.4,2903.9,3434.77z M2176.74,3433.88
		c8.94,5.68,202.3,66.11,212.19,67.39c6.26-14.68,7.47-30.69,11.25-46.04c5.5-22.37,5.26-22.7-16.84-27.18
		c-42.61-8.65-85.27-17.11-127.97-25.27c-5.84-1.12-12.1-3.99-18.08-0.96c-15.06,7.63-30.61,14.6-44.55,23.94
		C2187.58,3429.21,2183.27,3433.11,2176.74,3433.88z M2149.05,4449.35c0.88-3.13,1.47-4.12,1.36-5.02
		c-6.22-49.25-10.89-98.65-15.28-148.09c-0.58-6.58-4.17-8.87-9.51-9.88c-17.33-3.28-34.69-6.39-52.92-9.72
		c0,4.7-0.34,8.26,0.05,11.74c5.14,45.25,10.41,90.48,15.58,135.72c0.79,6.91,4.07,10.99,11.14,12.66
		C2115.82,4440.63,2132.04,4445,2149.05,4449.35z M3829.97,2718.24c-2.89,24.93-4.55,49.81-3.77,74.79
		c1.19,37.89,1.18,75.79,0.35,113.67c-0.93,42.5-1.75,85.01-0.21,127.5c1.69,46.6,1.04,93.19,0.24,139.78
		c-0.1,5.63-0.41,11.25-0.76,16.87c-0.32,5.13,1.96,7.06,7.09,7.6c11.86,1.23,13.2,0.41,13.98-11.49c0.2-3.06,0.18-6.14,0.29-9.21
		c1.36-38.91,0.7-77.82,0.31-116.74c-1.09-108.05-1.84-216.1-2.78-324.15C3844.59,2722.09,3844.46,2722.09,3829.97,2718.24z
		 M2687.1,4679.17c-0.5,0.6-1,1.21-1.5,1.81c1.13,1.02,2.15,2.21,3.4,3.04c2.56,1.7,5.25,3.19,7.87,4.79
		c25.97,15.88,54.1,23.88,84.62,24.04c44.1,0.24,88.2,1.27,132.3,1.36c63.07,0.12,126.15-0.33,189.23-0.47
		c15-0.03,29.79-1.78,43.79-7.1c20.78-7.9,23.91-23.25,8.44-39.02c-5.4-5.5-11.19-10.54-17.95-14.37
		c-32.56-18.42-65.52-36-100.47-49.59c-21.94-8.53-43.95-16.97-65.5-26.4c-16.55-7.25-31.51-17.44-42.25-32.35
		c-11.98-16.63-23.31-33.75-29.64-53.57c-0.59-1.83-1.66-3.56-5.04-3.07c0.4,8.74,4.3,16.69,5.98,25.09
		c5.56,27.64,20.65,48.5,43.58,64.41c13.58,9.42,28.24,16.44,43.41,22.79c34.01,14.24,69.31,25.23,102.64,41.16
		c18.09,8.65,35.57,18.23,50.83,31.39c7.35,6.33,7.48,9.19,0.98,14.67c-5.98,5.05-13.2,7.7-20.62,9.88
		c-15.45,4.54-31.45,4.85-47.25,5c-103.06,1.01-206.12,3.59-309.2,1.5c-19.93-0.4-38.46-5.2-56.13-14.04
		C2701.41,4686.53,2694.27,4682.82,2687.1,4679.17z M2402.74,4671.56c-40.04,30.62-85.77,35.74-134.03,34.56
		c-85.05-2.07-170.14-2.07-255.21-3.2c-14.33-0.19-28.65-1.57-42.95-2.71c-7.15-0.57-14.16-2.02-20.44-5.94
		c-16.67-10.42-16.93-19.96-0.75-31.33c1.26-0.88,2.64-1.58,3.9-2.46c28.81-20.18,62.02-31.33,93.73-45.55
		c22.86-10.25,46.92-17.97,68.06-31.82c27.24-17.85,46.66-41.32,51.88-74.55c0.64-4.04,0.96-8.14,1.18-12.22
		c0.11-2.08-0.5-4.16-3.16-4.23c-1.54-0.04-2.93,0.58-3.51,2.29c-0.99,2.9-1.99,5.81-3.06,8.68c-5.75,15.43-12.94,30.04-23.19,43.11
		c-17.76,22.66-41.77,35.85-68.13,45.38c-43.98,15.89-85.22,37.48-126,60.03c-5.36,2.97-10.67,6.2-15.47,9.98
		c-14.86,11.7-14.25,30.61,1.16,41.6c4.62,3.3,9.79,5.54,15.36,6.78c13.04,2.92,26.23,4.47,39.61,4.41
		c102.51-0.48,205.01-0.97,307.52-1.36c12.34-0.05,24.65-0.54,36.73-2.89C2355.05,4704.48,2381.64,4693.44,2402.74,4671.56z
		 M1547.02,2465.32c-0.45-10.18-0.16-19.46-1.38-28.54c-5.63-41.74-6.19-83.83-8.09-125.78c-2.46-54.27-3.47-108.63-2.91-162.99
		c0.03-3.15,1.92-7.27-3.27-9.71c-16.56,16.68-27.19,34.85-27.73,60.27c-1.23,58.19,3.36,115.75,12.8,172.98
		c4.58,27.76,9.75,55.5,18.82,82.28C1536.97,2458.93,1537.6,2465.31,1547.02,2465.32z M3803.44,2960.54c0.08,0,0.15,0,0.23,0
		c0,50.76-0.02,101.51,0.01,152.27c0.01,24.1-0.07,48.2,0.31,72.29c0.08,5.26-3.27,13.24,7.27,13.39c8.88,0.13,9.77-0.95,9.93-14.24
		c0.06-5.13-0.02-10.25-0.05-15.38c-0.25-54.86-0.53-109.71-0.74-164.57c-0.34-87.67-0.61-175.33-1.02-263
		c-0.03-6.63-0.66-13.3-1.61-19.87c-0.59-4.08-3.82-5.89-7.92-5.58c-3.85,0.29-4.98,2.98-5.14,6.36c-0.42,8.69-1.2,17.39-1.22,26.08
		C3803.4,2819.04,3803.44,2889.79,3803.44,2960.54z M3252.72,1996.65c10.3,15.37,19.46,31.24,31.53,45.18
		c13.72,15.85,26.7,32.4,39.19,49.25c52.77,71.22,89.02,150.26,110.87,236.06c7.02,27.56,9.95,55.86,15.56,83.7
		c0.5-3.61,0.74-7.19,0.46-10.72c-3.28-41.39-9.86-82.29-19.43-122.66c-23.69-99.85-75.16-183.99-146.27-256.89
		C3275.32,2011.04,3264.15,2003.84,3252.72,1996.65z M3525,1735.14c-2.29,9.15,1.3,14.9,9.85,18.11c3.83,1.44,7.4,3.56,11.24,4.95
		c5.33,1.93,8.76,0.24,10.08-5.67c1.9-8.49,4.39-16.84,6.29-25.33c5.26-23.47,10.28-46.99,15.59-70.45c0.64-2.84,0.88-6.02,3.5-8.22
		c4.28-3.59,4.42-4.01,2.71-5.06c-2.14-1.31-4.53-2.34-6.95-3.05c-7.85-2.31-15.7-4.7-23.67-6.53c-11.74-2.69-12.5-1.88-15.53,10.12
		C3530.53,1673.98,3530.03,1704.94,3525,1735.14z M3884.88,2702.73c-4.86-17.03-4.85-17.07-18.1-18.11
		c-37.28-2.91-74.54-2.82-111.78,0.76c-3.03,0.29-6.33,0.29-8.99,1.53c-6.5,3.03-4.85,9.38-5.02,14.81
		c-0.11,3.77,2.25,5.95,5.76,5.37c12.81-2.13,25.1,2.77,37.91,2.19c14.3-0.65,28.57-1.65,42.75-3.25
		C3846.16,2703.91,3865.05,2704.43,3884.88,2702.73z M1748.26,2022.74c-50.33,92.43-80.88,191.97-105.73,293.54
		C1676.22,2217.88,1716.49,2121.84,1748.26,2022.74z M1439.35,1817.23c10.95-3.47,18.82-10.25,27.72-15.14
		c2.67-1.47,5.68-3.47,4.34-7.12c-6.09-16.63-7.82-34.63-15.67-51.79c-10.93,8.17-21.78,14.78-32.94,20.88
		c-4.58,2.5-8.07,5.78-4.59,10.85C1427.2,1788.03,1432.77,1802.87,1439.35,1817.23z M2601.8,4538.29
		c3.64,56.89,30.54,93.98,69.2,96.28c-31.65-25.22-52.64-56.2-56.68-97.5C2611.23,4537.61,2607.22,4539.42,2601.8,4538.29z
		 M2472.01,4662.37c6.67,8.55,15.45,12.26,25.15,14.1c26.01,4.93,52.04,3.24,77.92-0.8c5.32-0.83,13.83-0.04,13.66-8.37
		c-0.03-1.68-9.65-3.61-15.48-3.56c-27.66,0.26-55.32,0.12-82.98,0.2C2484.14,4663.96,2478.03,4664.08,2472.01,4662.37z
		 M2406.32,4631.24c42.71-11.23,57.82-47.46,59.57-79.24c0.34-6.17,0.21-13.3-8-17.76c-2.46,9.6-4.15,18.63-7.11,27.23
		C2441.58,4588.17,2431.22,4614.26,2406.32,4631.24z M3150.83,621.25c14.96,7.04,28.04,4.41,43.23,3.3
		c-5.43-7.53-9.44-13.29-13.67-18.88c-2.89-3.81-6.28-4.74-10.27-1.17C3164.15,609.83,3158.05,615,3150.83,621.25z M3738.63,2784.78
		c-0.26-0.79,3.7-4.95-0.15-8.69C3736.96,2780.19,3738.61,2784.08,3738.63,2784.78z M3187.72,524.66c0.3-0.09,0.61-0.19,0.91-0.28
		c0-3.27,0-6.53,0-9.8c-0.3-0.01-0.61-0.01-0.91-0.02C3187.72,517.94,3187.72,521.3,3187.72,524.66z M3508.2,2063.24
		c-0.32-0.87-0.38-2.1-1-2.53c-0.87-0.6-1.9,0.1-1.89,1.27c0.01,0.84,0.34,2.01,0.95,2.44
		C3507.17,2065.05,3507.99,2064.41,3508.2,2063.24z"/>
	<path d="M2841.89,2704.78c-1.86-30.24,4.61-59.43,19.14-86.76c23.81-44.77,62.77-68.57,111.84-69.56
		c39.69-0.8,75.46,15.61,99.01,50.01c44.25,64.65,45.99,133.9,14.35,203.14c-21.94,48.02-62.16,73.77-116.29,74.06
		c-32.58,0.17-59.78-13.95-82.33-36.08c-22.83-22.41-37.26-49.93-41.75-82.1C2843.44,2740.24,2840.8,2723,2841.89,2704.78z
		 M3051.5,2640.65c5.63-28.93-26.26-62.94-53.57-58.22C3015.72,2601.76,3032.76,2620.28,3051.5,2640.65z"/>
	<path d="M2220.17,2716.51c-0.35,36.39-6.79,71.2-26.48,102.67c-32.37,51.74-112.77,85.41-180.82,25.61
		c-35.75-31.42-50.51-72.52-53.01-118.61c-1.96-36.07,0.73-71.66,17.6-104.77c23.18-45.49,60.71-71.31,111.08-72.66
		c40.76-1.09,75.49,15.88,99.27,51.24C2211.55,2635.3,2220.54,2674.56,2220.17,2716.51z M2158.8,2633.77
		c1.46-22.82-10.86-44.28-29.35-52.11c-5.08-2.15-10.71-3.15-16.18-4.21c-2.35-0.46-5.32-0.33-6.52,2.54c-1.21,2.88,1,4.7,2.72,6.5
		c10.91,11.43,21.78,22.91,32.81,34.22C2146.81,2625.33,2150.93,2630.57,2158.8,2633.77z"/>
	<path d="M1827.04,2439.07c-2.33-6.95-0.96-14.15-0.16-21.11c3.92-34.12,9.96-67.86,20.59-100.61
		c19.11-58.84,50.6-80.62,112.49-77.57c36.34,1.79,72.24,7.91,108.31,12.19c40.18,4.77,80.5,7.73,120.78,11.34
		c7.12,0.64,14.25,1.51,21.3,2.7c16.52,2.78,23.42,9.51,24.65,26.13c0.97,13.24,0.86,26.65,0.13,39.92
		c-1.29,23.51-2.78,47.05-5.36,70.45c-2.54,23.04-10.91,29.56-34.3,30.18c-27.92,0.74-54.89-5.72-82.04-10.65
		c-42.33-7.68-83.52-20.11-125.12-30.82c-14.25-3.67-27.53-3.57-42.05,0.32c-38.34,10.27-74.48,25.35-109.2,44.27
		C1834.06,2437.46,1831.34,2440.45,1827.04,2439.07z"/>
	<path d="M2838.68,2323.82c0-9.23-0.54-18.49,0.11-27.67c1.44-20.12,7.88-27.65,27.86-30.32c24.87-3.32,49.88-5.74,74.88-7.85
		c50.07-4.22,99.79-11.28,149.63-17.37c2.03-0.25,4.05-0.67,6.09-0.9c50.45-5.53,78.12,9.58,100.01,55.38
		c15.84,33.15,23.61,68.69,29.2,104.73c1.33,8.58,3.68,17.1,2.95,25.92c-1,12.25-4.2,14.46-15.36,9.69
		c-12.24-5.23-24.25-10.99-36.32-16.6c-28.03-13.02-57.62-21.16-87.61-28c-10.11-2.31-20.36-2.29-30.45,0.55
		c-25.13,7.08-50.18,14.42-75.37,21.27c-35.62,9.7-71.67,17.46-108.59,19.96c-18.71,1.27-27.55-6.03-30.41-24.55
		C2841,2380.17,2840.04,2351.95,2838.68,2323.82z"/>
	<path d="M3036.56,3131.78c-17.11,0-34.24,0.62-51.31-0.11c-72.6-3.11-145.18-6.55-217.76-10.11c-7.6-0.37-15.31-1.68-22.61-3.8
		c-8.64-2.51-9.64-9-2.44-14.42c14.51-10.93,31.3-14.98,49.15-14.06c39.33,2.03,78.54,4.67,117.19,13.5
		c40.83,9.33,81.57,19.21,122.96,25.97C3033.73,3129.07,3035.87,3129.24,3036.56,3131.78z"/>
	<path d="M2052.12,3132.98c12.27-7.34,25.86-8.94,39.1-11.77c39-8.33,77.57-18.64,116.98-25.13c26.38-4.35,52.85-6.35,79.55-4.81
		c9.28,0.53,18.38,2.1,26.29,7.34c4.36,2.89,8.23,6.83,7.21,12.59c-0.93,5.22-5.57,6.71-10.24,7.91c-6.48,1.66-13,2.57-19.69,2.93
		c-65.96,3.57-131.9,7.4-197.86,10.84C2079.72,3133.59,2065.9,3132.98,2052.12,3132.98z"/>
	<path d="M2436.81,3069.36c-14.12-1.13-28.45-5.82-39.91-17.25c-3.72-3.71-6.72-7.69-3.56-13.55c2.93-5.44,6.56-9.06,13.25-8.12
		c5.57,0.79,11.14,1.69,16.74,2.14c25.85,2.1,43.92-10.69,57.81-30.88c3.46-5.03,5.73-10.86,8.82-16.16
		c2.85-4.9,6.29-9.31,11.79-11.67c13.78-5.92,26.58,2.15,26.78,17.06c0.03,2.54-0.15,5.2-0.88,7.6
		C2516.81,3033.84,2483.82,3067.66,2436.81,3069.36z"/>
	<path d="M2656.66,3067.11c-54.64,0.36-81.49-42.92-87.2-77.64c-1.15-7,1.23-11.99,7.66-14.94c7.92-3.64,18.11-2.53,22.64,3.26
		c4.07,5.2,7.05,11.23,10.73,16.76c3.67,5.53,7.47,10.99,11.45,16.3c12.11,16.16,26.92,24.74,47.71,17.1
		c3.25-1.2,7.06-1.06,10.62-1.21c9.22-0.4,15.8,3.37,18.5,10.36c2.36,6.11-0.82,14.81-8.09,19.87
		C2679.84,3064.51,2667.56,3067.52,2656.66,3067.11z"/>
	<path d="M2470.94,3419.2c-3.95,0-7.89,0-11.84,0c0-0.06,0-0.11,0-0.17c3.93,0,7.87,0,11.8,0
		C2470.91,3419.09,2470.92,3419.14,2470.94,3419.2z"/>
	<path d="M2362.66,3634.86c38.62,0.87,62.12,25.43,62.97,59.32c0.86,33.92-27.64,63.46-59.61,63.62
		c-33.31,0.17-61.85-28.66-62.5-63.13C2302.9,3662.27,2329.66,3635.2,2362.66,3634.86z M2364.45,3675.48
		c-10.66-0.11-20.21,8.44-20.75,18.59c-0.53,9.98,10.13,22.06,19.51,22.1c10.29,0.04,20.4-10.39,20.42-21.08
		C2383.64,3683.95,2375.48,3675.6,2364.45,3675.48z"/>
	<path d="M2811.22,3695.14c-0.22,33.04-29.29,62.04-61.88,61.74c-31.89-0.3-62.17-31.07-61.67-62.67
		c0.55-34.23,27.13-60.58,60.79-60.27C2781.69,3634.24,2811.44,3663.24,2811.22,3695.14z M2768.2,3692.68
		c-0.31-10.93-10.58-20.55-21.24-19.86c-10.64,0.68-18.68,10.87-18.06,22.91c0.52,10.19,10.42,20.69,19.32,20.49
		C2758.25,3715.98,2768.51,3703.9,2768.2,3692.68z"/>
	<path d="M2863.98,4091.08c34.16,0.28,60.65,27.02,60,60.56c-0.63,32.32-28.02,59.34-60.64,58.99c-27-0.29-62.53-20.91-61.6-61.21
		C2802.51,4116,2829.06,4090.79,2863.98,4091.08z M2864.05,4169.83c9.91-0.18,18.18-9.71,18.2-20.98
		c0.02-10.84-9.69-19.78-21.34-19.64c-10.02,0.12-16.83,8.31-16.67,20.02C2844.41,4161.96,2852.19,4170.04,2864.05,4169.83z"/>
	<path d="M2290.76,4149.33c-0.83,33.63-31.32,61.97-65.05,60.47c-33-1.48-58.79-29.65-57.13-64.02
		c1.77-36.67,25.57-56.6,60.38-56.02C2265.23,4090.36,2290.1,4115.62,2290.76,4149.33z M2210.87,4147.35
		c-0.49,13.46,6.2,21.87,17.57,22.1c10.16,0.2,19.49-9.88,19.76-21.35c0.25-10.57-8.45-19.79-18.88-20.01
		C2217.39,4127.85,2211.35,4134.16,2210.87,4147.35z"/>
	<path d="M2801.84,3851.52c0.61-31.98,27.96-58.41,59.72-57.69c35.02,0.79,63.01,27.08,62.61,58.82
		c-0.42,33.74-29.29,62.96-61.83,61.6C2830.19,3912.91,2801.14,3888.15,2801.84,3851.52z M2861.89,3873.37
		c11.53,0.21,20.46-8.53,20.5-20.07c0.04-11.19-8.78-20.02-20.46-20.49c-10.37-0.41-18.48,8.42-18.5,20.14
		C2843.4,3864.17,2851.55,3873.18,2861.89,3873.37z"/>
	<path d="M2230.43,3913.71c-35.23,0.28-62.78-26.91-62.78-61.68c0.01-33.86,30.66-57.26,61.69-57.97
		c32.64-0.76,60.58,25.78,61.17,56.4C2291.16,3883.5,2262.7,3913.46,2230.43,3913.71z M2248.5,3853.25
		c0.25-10.83-8.09-19.73-18.89-20.16c-9.88-0.39-18.09,8.82-18.29,20.53c-0.21,12.44,5.57,19.37,16.41,19.67
		C2239.05,3873.6,2248.24,3864.74,2248.5,3853.25z"/>
	<path d="M1835.41,4270.4c4.31,5.29,8.61,10.57,12.92,15.86c-4.67-5.06-9.86-9.51-12.54-16.23
		C1835.79,4270.03,1835.41,4270.4,1835.41,4270.4z"/>
	<path d="M1811.41,4229.74c2.1,4.41,4.21,8.81,7.05,14.77C1812.35,4240.15,1812.49,4234.31,1811.41,4229.74z"/>
	<path d="M1974.88,4314.29c-3.74,1.79-6.44,4.2-10.42,3.33C1967.42,4315.03,1970.63,4314.35,1974.88,4314.29z"/>
	<path d="M1794.31,4159.83c0,3.37,0,6.75,0,10.12c-0.09,0-0.18,0-0.27,0c0-3.37,0-6.75,0-10.12
		C1794.13,4159.83,1794.22,4159.83,1794.31,4159.83z"/>
	<path d="M1835.79,4270.03c-3.93-1.56-5.88-4.89-8.48-9.94c5.98,2.22,7.42,5.95,8.1,10.31
		C1835.41,4270.4,1835.79,4270.03,1835.79,4270.03z"/>
	<path d="M1947.46,4321.29c-0.47-0.09-0.94-0.17-1.41-0.25c0.56-0.31,1.13-0.9,1.68-0.88c0.86,0.02,1.71,0.46,2.56,0.71
		C1949.34,4321.01,1948.4,4321.15,1947.46,4321.29z"/>
	<path d="M3281.32,4122.93c7.96,9.96,8.5,22.18,9.62,33.97c0.8,8.31,0.45,16.9-3.1,25.09c0.52-20.16-2.36-39.82-6.18-59.37
		L3281.32,4122.93z"/>
	<path d="M3083.8,4300.55c17.78,8.73,37.32,13.34,54.62,23.19l0.26-0.16c-16.27-5.17-33.27-8.28-48.38-16.77
		c-2.7-1.52-7.42-1.54-6-6.8C3084.29,4300.02,3083.8,4300.55,3083.8,4300.55z"/>
	<path d="M3083.8,4300.55c0,0,0.49-0.54,0.5-0.54c-10.4-2.91-10.4-2.91-17.39-17.54C3072.38,4288.66,3080.07,4292.66,3083.8,4300.55
		z"/>
	<path d="M3179.57,4321.06c1.89-5.86,6.49-6.64,12.2-7.2c-3.3,5.25-9.24,3.41-12.42,7L3179.57,4321.06z"/>
	<path d="M3179.35,4320.87c-6.07,0.69-12.27,0.49-18.11,2.83c-0.03,0.01,0.05-0.01,0.05-0.01c5.18-6.61,11.68-4.5,18.2-2.7
		C3179.57,4321.06,3179.35,4320.87,3179.35,4320.87z"/>
	<path d="M3138.42,4323.75c7.6-2.28,15.2-1.32,22.84-0.06c0.03,0-0.05,0.02-0.02,0.01c-7.46,0.67-14.95,2.02-22.48-0.16
		C3138.68,4323.59,3138.42,4323.75,3138.42,4323.75z"/>
	<path d="M3281.66,4122.61c-2.49-3.62-4.95-7.26-5.04-13.7c4.3,4.92,6.12,8.87,4.72,14
		C3281.32,4122.93,3281.66,4122.61,3281.66,4122.61z"/>
	<path d="M3781.57,2803.59c0-9.18,0-18.36,0-27.54c0.17-0.01,0.34-0.01,0.51-0.02c0,9.18,0,18.37,0,27.55
		C3781.9,2803.58,3781.73,2803.59,3781.57,2803.59z"/>
	<path d="M3757.47,3085.66c0,2.7,0,5.4,0,8.1C3757.47,3091.06,3757.47,3088.36,3757.47,3085.66z"/>
	<path d="M3757.54,2850.01c-0.33,2.35-2.49,1.58-0.45,1.42c0.21-0.02,0.3-1.59,0.45-2.44
		C3757.54,2849.44,3757.54,2849.88,3757.54,2850.01z"/>
	<path d="M3662.34,2923.83c0,33.62,0,67.23,0,100.85c-0.27,0-0.54,0-0.82,0c0-33.64,0-67.28,0-100.92
		C3661.8,2923.79,3662.07,2923.81,3662.34,2923.83z"/>
	<path d="M3581.94,3180.68c0-0.81,0-1.83,0-2.84c0.04,0.16,0.12,0.32,0.12,0.48c0.02,1.01,0.02,2.03,0.02,3.04
		C3582.04,3181.21,3582.01,3181.04,3581.94,3180.68z"/>
	<path d="M3582.93,1888.81c-2.04,11.96-3.44,24.07-6.27,35.83c-4.59,19.03-5.16,38.53-7.96,57.76c-1.72,11.82,1.36,23.45,3.51,35
		c1.96,10.55,4.59,20.97,6.73,31.49c0.81,3.99,1.27,8.08,1.52,12.15c0.13,2.11-0.87,4.04-3.6,3.43c-1.54-0.34-3.04-1.38-2.88-3.11
		c1.42-15.79-5.64-30.01-8.27-45.05c-2.94-16.76-4.08-33.34-0.59-50.32c4.53-22.03,6.82-44.5,12.73-66.28
		c1.03-3.81,2.42-7.53,3.64-11.28C3581.96,1888.57,3582.44,1888.69,3582.93,1888.81z"/>
	<path d="M1474.43,2075.55c-0.11,2.08-0.23,4.17-0.34,6.25c-0.27-1.16-0.68-2.3-0.76-3.47c-0.07-0.92,0.26-1.87,0.42-2.8
		C1473.98,2075.53,1474.21,2075.54,1474.43,2075.55z"/>
	<path d="M2996.88,4432.3c-2.36-0.19-5.26,1.05-6.47-2.21c-0.33-0.89-0.17-2.06,0.04-3.04c7.4-34.35,5.59-69.29,6.7-104.07
		c3.55,30.53,5.14,61.05,0.14,91.58c-0.99,6.05-2.53,12.03-0.96,18.18C2996.35,4432.72,2996.88,4432.3,2996.88,4432.3z"/>
	<path d="M3009.34,4291.77c-1.58,3.12-3.95,1.86-5.63,2.64c-3.58,1.68-1.5,5.87-3.72,8.12c-0.01-0.98,0.13-1.99-0.06-2.93
		c-1.11-5.37,0.53-8.48,6.51-8.18C3006.93,4291.45,3007.41,4291.54,3009.34,4291.77z"/>
	<path d="M3002.65,4342.86c0-5.87,0-11.74,0-17.61c0.43,0,0.86,0,1.29,0c0,6.01,0,12.02,0,18.03
		C3003.51,4343.14,3003.08,4343,3002.65,4342.86z"/>
	<path d="M3006.75,4304.34c1.17,2.42,1.18,4.67-0.46,6.91C3005.17,4308.83,3004.85,4306.56,3006.75,4304.34z"/>
	<path d="M3146.07,4698.89c2.43-4.41,5.63-7.49,7.6-5.75c2.95,2.61-1.2,3.61-3.15,4.63
		C3149.69,4698.21,3148.66,4698.26,3146.07,4698.89z"/>
</g>
</svg>
