<svg id="Layer_1" data-name="Layer 1" xmlns="http://www.w3.org/2000/svg" viewBox="0 0 1000 1000"><title>5825-Fire</title><path d="M516.31,916c-2.56,0-5.12,0-7.71-.13-8.77-.29-18.06-.39-30.13-.35h-.85c-52.86,0-225.48-18.58-289.56-251A334.43,334.43,0,0,1,185.13,498a325.78,325.78,0,0,1,78.75-146.57c1.09-1.16,2.2-2.33,3.32-3.49a16,16,0,0,1,27.27,14c-4.89,26.86-12.48,103,10.71,132.36a26.53,26.53,0,0,0,18.56,10.59c2.46-.94,7.62-3.58,11.81-10.28,6-9.65,11.23-29.33,1.82-68.29-6.55-27.1-7-55.13-1.33-81.05,8.92-40.73,34.78-97.4,107.33-136,2.82-1.5,5.69-2.9,8-4,7.23-3.5,41.63-24.76,9.21-98.78a16,16,0,0,1,20.95-21.13A333.75,333.75,0,0,1,528,110.64c33.62,22.08,53.29,45,58.46,68.15.15.66.29,1.32.44,2,.35,1.62.69,3.15,1,4.56,3.33,13,9.82,46-1.63,73-8.84,23.13-28.42,93.52-4.95,117.72,1.54,1.59,3.46,3.57,5.31,5.72,13.74,15.94,33.53,31,46.78,28.75,10.51-1.79,17.94-15.52,22.32-26.72a120.07,120.07,0,0,0,8-40.2c.6-19.16.63-54.91-5.91-79.06a16,16,0,0,1,26.92-15.33c3.08,3.17,75.75,78.56,103.62,158.24,3,8.68,6.17,17.65,9.5,26.56,15.42,41.26,46.87,148.61,6.09,254-2.58,6.68-5.11,13.41-7.51,20a366.9,366.9,0,0,1-38.74,76c-26.08,39-57.44,69-93.22,89.13-1.89,1.06-3.58,2-5.23,3C647.82,883,588.52,916,516.31,916ZM478.4,899.52h0Zm5.23-16c10,0,18.19.12,26,.38,66.77,2.17,122.76-29,133.31-35.22,1.94-1.16,3.89-2.26,5.87-3.38,74.23-41.82,108.78-124,117.6-148.19,2.48-6.8,5.08-13.72,7.74-20.6C811,581.37,782.08,483.1,768,445.26c-3.45-9.22-6.65-18.36-9.74-27.2-13.78-39.39-40.58-78.76-62.43-106.75.41,11.92.31,23.42,0,33.34a152.34,152.34,0,0,1-10.22,50.87c-10.75,27.46-26.47,43.14-46.74,46.6a49,49,0,0,1-8.14.68c-30.22,0-57.38-27.47-68.26-40.09-1.23-1.43-2.66-2.91-4-4.33-18.71-19.29-24.43-51.31-17-95.18a324.49,324.49,0,0,1,15.18-56.58c.07-.18.14-.36.22-.54,6.33-14.79,4.25-37,.18-52.78-.51-2-.92-3.87-1.32-5.7l-.41-1.82c-3.18-14.26-19-31.36-44.42-48.15-2.62-1.73-5.24-3.38-7.8-4.95,5.42,24.59,4.23,46.21-3.61,64.56-9.84,23-27.08,33.37-34,36.75-2.63,1.28-4.8,2.34-6.92,3.47-61.77,32.9-83.64,80.5-91.12,114.65-4.65,21.21-4.24,44.27,1.18,66.69,9.89,41,7.6,72.7-6.81,94.33-13.28,19.93-31.84,23.4-33.91,23.73a16.5,16.5,0,0,1-3.37.18,59,59,0,0,1-44.33-22.93c-16-20.22-23.61-53.33-22.69-98.39,0-1.6.07-3.18.12-4.75-46.89,70.79-61.79,160.88-38.58,245C277,866.68,430.61,883.52,477.6,883.52h6Z"/><path d="M491.09,916c-39.7,0-71.66-17.1-80.76-22.51-.89-.53-1.78-1-2.67-1.53-46.1-26-67.44-73.65-74.47-92.94-1.28-3.52-2.63-7.1-4-10.65-22.91-59.19-5.36-119.17,3.25-142.21,1.77-4.73,3.45-9.53,5.07-14.18,15.56-44.48,55.84-86.27,57.55-88A16,16,0,0,1,422,559.28c-2.39,8.84-3.46,23.59-2.94,40.48A57.38,57.38,0,0,0,422.87,619c3,7.77,5.83,9.73,6.41,9.83,2.56.43,10.57-4,18.4-13,1.13-1.31,2.26-2.47,3.16-3.4,7.9-8.15,2.54-38-4.21-55.6-7-16.65-3.17-36.28-1.19-44,.19-.73.35-1.47.51-2.21l.24-1.09c3.22-14.42,14.89-28.31,34.68-41.31a188.87,188.87,0,0,1,26.19-14.28A16,16,0,0,1,528,475c-14.78,33.74-1.4,42.3,1.43,43.68,1.3.63,2.92,1.42,4.55,2.29,41.61,22.16,56.48,54.81,61.62,78.29a105.45,105.45,0,0,1-.76,47c-5,20.59-1.5,28.83.23,31.42l1.1,1.41a7.52,7.52,0,0,0,3.08-2.48c9.07-11.47,8-45.2,4.31-65.49a16,16,0,0,1,27.27-14c.63.65,1.25,1.3,1.86,2A183,183,0,0,1,677,681.51,187.65,187.65,0,0,1,675.32,775C639.39,905.32,541.93,915.74,512.07,915.74h-.49c-6.42,0-11.35,0-16,.19C494.09,916,492.59,916,491.09,916ZM387.28,605c-7.68,11.54-15,24.59-19.56,37.59-1.6,4.58-3.42,9.77-5.3,14.81-5.72,15.3-22.86,69.14-3.39,119.46,1.45,3.74,2.87,7.52,4.22,11.24,4.54,12.44,22.28,54.7,60.11,76,1.11.62,2.22,1.25,3.32,1.9,5.37,3.2,33.92,19.09,67.87,18,5-.16,10.33-.23,17.15-.2h.46c30.44,0,103.18-11.61,132.31-117.27A155.32,155.32,0,0,0,637,663c-2,14.18-6.17,25.4-12.57,33.51a39,39,0,0,1-29.3,15.15,16.49,16.49,0,0,1-3.37-.17c-2.36-.38-14.54-2.91-23.26-16-9-13.45-10.54-32.52-4.7-56.69a73.19,73.19,0,0,0,.6-32.65c-5.38-24.58-20.66-43.72-45.4-56.9-1.11-.59-2.37-1.2-3.49-1.74a46.54,46.54,0,0,1-21.91-23.56,56,56,0,0,1-4.34-22.24c-6.2,5.1-10.81,10.33-11.8,14.77l-.21.94c-.24,1.12-.49,2.24-.77,3.35-1.81,7-3,17.44-.27,23.72.08.18.15.36.22.54A184.14,184.14,0,0,1,485,576.94c4.41,26.1.65,45.51-11.16,57.69-.67.7-1.37,1.42-1.89,2-7.2,8.36-26.31,27.41-48,23.7-9.39-1.6-22.35-8.05-30.83-29.71A88.71,88.71,0,0,1,387.28,605Z"/></svg>