<svg x="0" y="0" viewBox="0 0 221.023 73.102" xml:space="preserve" id="finapi-logo_svg__svg40" width="100" height="46" xmlns="http://www.w3.org/2000/svg" data-testid="finapiLogo" aria-label="FinAPI-Logo"><style type="text/css" id="style24">.finapi-logo_svg__st3{fill:#232323}.finapi-logo_svg__st4{fill:#00addf}</style><g id="finapi-logo_svg__Logo_x5F_ohne_x5F_Claim"><g id="finapi-logo_svg__Farbe"><path id="finapi-logo_svg__Schutzraum_3_" d="M-30.923-31.391h283.46v136.54h-283.46z" style="fill: none;"></path><g id="finapi-logo_svg__Wortmarke_1_" transform="translate(-30.923 -31.391)"><path id="finapi-logo_svg__API_1_" class="finapi-logo_svg__st4" d="M233.85 49.97h-31.73v31.6h3.73l.02-12.9 28.09.01c6.14 0 9.05-2.41 9.05-7.65v-3.36c0-5.24-3.03-7.7-9.16-7.7zm5.42 10.37c0 3.37-1.44 4.6-5.3 4.6h-28.12V53.71h28.12c3.86 0 5.3 1.35 5.3 4.88zm-39.01 21.23h-4.49l-4.51-7.43-30.34-.03-4.5 7.46h-4.49L169.2 52.7c1.13-1.9 1.92-2.73 4.94-2.73h3.81c2.71 0 3.92.83 5.05 2.73zm-20.17-26.11c-.83-1.3-1.21-1.62-3.32-1.62h-1.43c-2.19 0-2.53.32-3.36 1.62l-9.15 14.97 26.44-.02zm70.35 26.11h-3.72v-31.6h3.72z"></path><path id="finapi-logo_svg__fin_1_" class="finapi-logo_svg__st3" d="m103.61 53.69-5.98-.04c-3.34 0-5.17.98-5.17 3.75v1.86h11.15v3.72H92.46v18.59h-3.72V57.98c0-5.01 2.7-8.01 8.2-8.01h6.66v3.72zm7.4 1.86h-3.68v-5.58h3.68zm.04 26.02h-3.68v-22.3h3.68zm33.45 0h-3.72l.02-15.07c0-2.92-1.6-3.52-5.16-3.52l-17.16.02v18.57h-3.72v-22.3h21.02c6.14 0 8.72 2.19 8.72 7.24z"></path></g><g id="finapi-logo_svg__Signet_1_" transform="translate(-30.923 -31.391)"><path id="finapi-logo_svg__Element_02_1_" class="finapi-logo_svg__st3" d="M57.02 59.62c-.95-.95-2.51-.95-3.46 0L33.7 79.49c-.95.95-.95 2.51 0 3.46l19.87 19.87c.95.95 2.51.95 3.46 0L76.9 82.95c.95-.95.95-2.51 0-3.46zm0 38.01c-.95.95-2.51.95-3.46 0L38.88 82.94c-.95-.95-.95-2.51 0-3.46L53.57 64.8c.95-.95 2.51-.95 3.46 0l14.69 14.69c.95.95.95 2.51 0 3.46z"></path><path id="finapi-logo_svg__Element_01_1_" class="finapi-logo_svg__st4" d="M76.89 53.71 57.02 33.84c-.95-.95-2.51-.95-3.46 0L33.7 53.71c-.95.95-.95 2.51 0 3.46l9.93 9.93 2.59-2.59-7.34-7.34c-.95-.95-.95-2.51 0-3.46l14.69-14.69c.95-.95 2.51-.95 3.46 0l14.69 14.69c.95.95.95 2.51 0 3.46l-14.7 14.68c-.95.95-2.51.95-3.46 0l-2.16-2.16-2.59 2.59 4.75 4.75c.95.95 2.51.95 3.46 0l19.87-19.87c.95-.95.95-2.5 0-3.45z"></path></g></g></g></svg>